<svg width="32" height="32" viewBox="0 0 32 32" fill="none" xmlns="http://www.w3.org/2000/svg">
<path d="M28 16.0733C28 9.40541 22.6274 4 16 4C9.37257 4 4 9.40541 4 16.0733C4 22.0994 8.3882 27.0943 14.125 28V19.5633H11.0781V16.0733H14.125V13.4134C14.125 10.3875 15.9166 8.71615 18.6576 8.71615C19.9701 8.71615 21.3437 8.95195 21.3437 8.95195V11.9231H19.8306C18.34 11.9231 17.875 12.8539 17.875 13.8096V16.0733H21.2031L20.6711 19.5633H17.875V28C23.6118 27.0943 28 22.0994 28 16.0733Z" fill="#1877F2"/>
<path d="M20.7683 19.5185L21.3111 16.07H17.9158V13.8331C17.9158 12.8896 18.3902 11.969 19.9109 11.969H21.4545V9.03306C21.4545 9.03306 20.0536 8.80005 18.7142 8.80005C15.9179 8.80005 14.0902 10.4516 14.0902 13.4416V16.07H10.9818V19.5185H14.0902V27.8551C15.3577 28.0484 16.6483 28.0484 17.9158 27.8551V19.5185H20.7683Z" fill="white"/>
</svg>
