<svg width="32" height="32" viewBox="0 0 32 32" fill="none" xmlns="http://www.w3.org/2000/svg">
<path d="M12.2896 24.1272C19.8368 24.1272 23.9648 17.8744 23.9648 12.452C23.9648 12.2744 23.9648 12.0976 23.9528 11.9216C24.7559 11.3407 25.4491 10.6215 26 9.7976C25.2511 10.1294 24.4567 10.3471 23.6432 10.4432C24.4998 9.93038 25.1409 9.12382 25.4472 8.1736C24.6417 8.65156 23.7605 8.98841 22.8416 9.1696C22.2229 8.51175 21.4047 8.07613 20.5135 7.93017C19.6223 7.78421 18.7078 7.93603 17.9116 8.36214C17.1154 8.78826 16.4819 9.46491 16.109 10.2874C15.7361 11.1099 15.6446 12.0323 15.8488 12.912C14.2174 12.8302 12.6214 12.4063 11.1645 11.6677C9.70759 10.9291 8.42227 9.89235 7.392 8.6248C6.86727 9.52813 6.70656 10.5975 6.94258 11.6152C7.17861 12.6328 7.79362 13.5223 8.6624 14.1024C8.00939 14.083 7.37062 13.9069 6.8 13.5888C6.8 13.6056 6.8 13.6232 6.8 13.6408C6.80026 14.5882 7.12821 15.5063 7.72823 16.2394C8.32824 16.9726 9.16338 17.4756 10.092 17.6632C9.4879 17.828 8.85406 17.852 8.2392 17.7336C8.50141 18.5489 9.01189 19.2619 9.69926 19.7729C10.3866 20.2838 11.2165 20.5671 12.0728 20.5832C10.6198 21.7251 8.82485 22.3451 6.9768 22.3432C6.65032 22.3426 6.32416 22.3228 6 22.284C7.87651 23.4882 10.0599 24.127 12.2896 24.124" fill="#1DA1F2"/>
</svg>
