<svg width="287" height="197" viewBox="0 0 287 197" fill="none" xmlns="http://www.w3.org/2000/svg">
<g clip-path="url(#clip0)">
<rect width="287" height="197" rx="2" fill="#DFD8F7"/>
<path d="M91.3352 -4.09974C50.9814 -83.2128 112.617 -127.874 153.145 -162.575L354.796 22.1288L435.486 125.926C333.64 212.254 114.638 379.039 53.398 355.553C-23.1526 326.196 -26.8365 247.931 -7.24517 212.147C10.8736 179.053 72.5605 150.027 95.4921 124.769C118.424 99.5119 131.689 75.0134 91.3352 -4.09974Z" fill="url(#paint0_linear)"/>
<path d="M182.918 2.10159C183.72 2.30823 184.538 1.82539 184.744 1.02315C184.951 0.220909 184.468 -0.596946 183.666 -0.803584C182.864 -1.01022 182.046 -0.527391 181.839 0.27485C181.633 1.07709 182.115 1.89495 182.918 2.10159Z" fill="#DFD8F7" fill-opacity="0.5"/>
<path d="M233.964 88.5674C234.766 88.774 235.584 88.2912 235.79 87.489C235.997 86.6867 235.514 85.8689 234.712 85.6622C233.91 85.4556 233.092 85.9384 232.885 86.7407C232.678 87.5429 233.161 88.3608 233.964 88.5674Z" fill="#DFD8F7" fill-opacity="0.5"/>
<path d="M106.554 116.159C106.554 116.159 104.895 116.62 103.51 117.957C103.391 116.594 101.712 114.912 101.712 114.912C101.712 114.912 103.613 114.514 104.757 113.115C105.189 114.867 106.554 116.159 106.554 116.159Z" fill="#DFD8F7" fill-opacity="0.5"/>
<path d="M229.232 88.897C229.232 88.897 225.963 89.6517 223.267 92.0076C222.967 89.5351 219.548 86.4027 219.548 86.4027C219.548 86.4027 223.308 85.7744 225.512 83.2921C226.462 86.4926 229.232 88.897 229.232 88.897Z" fill="#DFD8F7" fill-opacity="0.5"/>
<path d="M244.976 23.7658C244.976 23.7658 243.316 24.2264 241.931 25.5632C241.812 24.2004 240.134 22.5186 240.134 22.5186C240.134 22.5186 242.034 22.1201 243.178 20.7212C243.615 22.4749 244.976 23.7658 244.976 23.7658Z" fill="#DFD8F7" fill-opacity="0.5"/>
<path d="M43.257 149.422C43.257 149.422 41.5972 149.883 40.2124 151.219C40.0932 149.857 38.415 148.175 38.415 148.175C38.415 148.175 40.3156 147.776 41.4596 146.377C41.896 148.131 43.257 149.422 43.257 149.422Z" fill="#DFD8F7" fill-opacity="0.5"/>
<path d="M230.281 26.6924C231.083 26.899 231.901 26.4162 232.108 25.614C232.314 24.8117 231.831 23.9939 231.029 23.7872C230.227 23.5806 229.409 24.0634 229.203 24.8657C228.996 25.6679 229.479 26.4858 230.281 26.6924Z" fill="#DFD8F7" fill-opacity="0.5"/>
<path d="M233.773 149.444C234.575 149.651 235.393 149.168 235.6 148.366C235.807 147.564 235.324 146.746 234.521 146.539C233.719 146.333 232.901 146.815 232.695 147.618C232.488 148.42 232.971 149.238 233.773 149.444Z" fill="#DFD8F7" fill-opacity="0.5"/>
<path d="M66.4763 141.462C67.2785 141.669 68.0964 141.186 68.303 140.384C68.5096 139.581 68.0268 138.763 67.2246 138.557C66.4223 138.35 65.6045 138.833 65.3978 139.635C65.1912 140.437 65.674 141.255 66.4763 141.462Z" fill="#DFD8F7" fill-opacity="0.5"/>
<path d="M116.788 194.694C118.66 195.176 120.569 194.049 121.051 192.177C121.533 190.306 120.406 188.397 118.534 187.915C116.663 187.433 114.754 188.559 114.272 190.431C113.79 192.303 114.916 194.212 116.788 194.694Z" fill="#DFD8F7" fill-opacity="0.5"/>
<path d="M105.696 185.642C106.498 185.848 107.316 185.365 107.523 184.563C107.729 183.761 107.247 182.943 106.444 182.736C105.642 182.53 104.824 183.013 104.618 183.815C104.411 184.617 104.894 185.435 105.696 185.642Z" fill="#DFD8F7" fill-opacity="0.5"/>
<path d="M239.275 92.0003C239.543 92.0692 239.815 91.9083 239.884 91.6409C239.953 91.3734 239.792 91.1008 239.525 91.0319C239.257 90.9631 238.985 91.124 238.916 91.3914C238.847 91.6588 239.008 91.9315 239.275 92.0003Z" fill="#DFD8F7" fill-opacity="0.5"/>
<path d="M256.105 78.7803C256.907 78.9869 257.725 78.5041 257.931 77.7019C258.138 76.8996 257.655 76.0818 256.853 75.8751C256.051 75.6685 255.233 76.1513 255.026 76.9536C254.82 77.7558 255.302 78.5737 256.105 78.7803Z" fill="#DFD8F7" fill-opacity="0.5"/>
<path d="M230.721 101.157C231.524 101.363 232.286 101.097 232.423 100.562C232.561 100.028 232.022 99.4265 231.22 99.2199C230.418 99.0132 229.656 99.2793 229.518 99.8141C229.38 100.349 229.919 100.95 230.721 101.157Z" fill="#DFD8F7" fill-opacity="0.5"/>
<path d="M140.411 181.159C140.946 181.297 141.491 180.975 141.629 180.44C141.767 179.905 141.445 179.36 140.91 179.222C140.375 179.084 139.83 179.406 139.692 179.941C139.555 180.476 139.877 181.021 140.411 181.159Z" fill="#DFD8F7" fill-opacity="0.5"/>
<path d="M208.857 187.83C209.927 188.105 210.962 187.678 211.168 186.876C211.375 186.074 210.675 185.2 209.606 184.925C208.536 184.649 207.501 185.076 207.295 185.878C207.088 186.681 207.788 187.554 208.857 187.83Z" fill="#DFD8F7" fill-opacity="0.5"/>
<path d="M67.3709 186.096C68.1731 186.303 69.0468 185.603 69.3223 184.534C69.5978 183.464 69.1708 182.429 68.3686 182.223C67.5664 182.016 66.6927 182.716 66.4172 183.785C66.1416 184.855 66.5686 185.89 67.3709 186.096Z" fill="#DFD8F7" fill-opacity="0.5"/>
<path d="M197.679 6.93622C198.213 7.07398 198.759 6.75208 198.896 6.21725C199.034 5.68243 198.712 5.13719 198.177 4.99944C197.643 4.86168 197.097 5.18356 196.96 5.71839C196.822 6.25322 197.144 6.79846 197.679 6.93622Z" fill="#DFD8F7" fill-opacity="0.5"/>
<path d="M264.864 6.68622C265.399 6.82397 265.944 6.50209 266.082 5.96726C266.22 5.43243 265.898 4.88719 265.363 4.74943C264.828 4.61167 264.283 4.93357 264.145 5.46839C264.007 6.00322 264.329 6.54846 264.864 6.68622Z" fill="#DFD8F7" fill-opacity="0.5"/>
<path d="M29.0904 146.289C29.8927 146.496 30.6547 146.23 30.7925 145.695C30.9302 145.16 30.3915 144.559 29.5893 144.353C28.7871 144.146 28.025 144.412 27.8873 144.947C27.7495 145.482 28.2882 146.083 29.0904 146.289Z" fill="#DFD8F7" fill-opacity="0.5"/>
<path d="M119.297 124.198C120.39 124.407 121.226 124.473 122.476 124.601C123.115 124.666 123.335 123.812 122.743 123.565C121.622 123.1 120.893 122.817 119.791 122.501C119.51 122.42 119.334 122.153 119.385 121.881C119.572 120.843 119.721 119.677 119.826 118.501C119.881 117.886 118.992 117.657 118.747 118.223C118.288 119.29 117.91 120.374 117.605 121.431C117.526 121.701 117.247 121.869 116.96 121.813C115.875 121.592 114.869 121.433 113.993 121.32C113.345 121.235 113.111 122.107 113.72 122.359C114.676 122.75 115.711 123.161 116.593 123.474C116.856 123.569 117.015 123.832 116.961 124.094C116.749 125.158 116.597 126.15 116.498 127.012C116.422 127.635 117.331 127.878 117.58 127.295C117.966 126.381 118.373 125.39 118.68 124.546C118.764 124.292 119.028 124.147 119.297 124.198Z" fill="#DFD8F7" fill-opacity="0.5"/>
<path d="M36.9986 178.079C46.7863 178.079 54.7208 170.145 54.7208 160.357C54.7208 150.569 46.7863 142.635 36.9986 142.635C27.2109 142.635 19.2764 150.569 19.2764 160.357C19.2764 170.145 27.2109 178.079 36.9986 178.079Z" fill="url(#paint1_radial)" fill-opacity="0.5"/>
<path d="M51.0347 179.003C42.5687 185.742 30.3345 186.312 21.1541 179.635C15.2804 175.361 11.8473 168.981 11.1328 162.292" stroke="#CABEF2" stroke-width="2" stroke-linecap="round" stroke-linejoin="round" stroke-dasharray="1 1"/>
<path d="M11 159.118C11 159.01 11.0063 158.909 11.0063 158.802" stroke="#CABEF2" stroke-width="2" stroke-linecap="round" stroke-linejoin="round"/>
<path d="M20.4839 140.22C28.9435 133.612 41.0766 133.094 50.1874 139.72C54.5626 142.9 57.5848 147.25 59.1339 152.024" stroke="#CABEF2" stroke-width="2" stroke-linecap="round" stroke-linejoin="round" stroke-dasharray="1.04 1.04"/>
<path d="M59.9429 155.217C59.9618 155.318 59.9808 155.425 59.9998 155.527" stroke="#CABEF2" stroke-width="2" stroke-linecap="round" stroke-linejoin="round"/>
<path d="M15.7167 148.028C17.2985 148.028 18.5808 146.746 18.5808 145.164C18.5808 143.582 17.2985 142.3 15.7167 142.3C14.1349 142.3 12.8525 143.582 12.8525 145.164C12.8525 146.746 14.1349 148.028 15.7167 148.028Z" fill="#CABEF2"/>
<path d="M55.6312 177.061C57.213 177.061 58.4954 175.779 58.4954 174.197C58.4954 172.615 57.213 171.333 55.6312 171.333C54.0494 171.333 52.7671 172.615 52.7671 174.197C52.7671 175.779 54.0494 177.061 55.6312 177.061Z" fill="#DCD4F7"/>
</g>
<defs>
<linearGradient id="paint0_linear" x1="407.486" y1="253.601" x2="60.5435" y2="51.865" gradientUnits="userSpaceOnUse">
<stop offset="0.193448" stop-color="#512BD4"/>
<stop offset="0.903941" stop-color="#DFD8F7"/>
</linearGradient>
<radialGradient id="paint1_radial" cx="0" cy="0" r="1" gradientUnits="userSpaceOnUse" gradientTransform="translate(36.9971 160.359) scale(17.721)">
<stop offset="0.223958" stop-color="#6F4FDC"/>
<stop offset="0.890625" stop-color="#6F50DC" stop-opacity="0"/>
</radialGradient>
<clipPath id="clip0">
<rect width="287" height="197" rx="2" fill="white"/>
</clipPath>
</defs>
</svg>
