<svg width="287" height="197" viewBox="0 0 287 197" fill="none" xmlns="http://www.w3.org/2000/svg">
<g clip-path="url(#clip0)">
<rect width="287" height="197" rx="2" fill="#A7CBF6"/>
<path d="M49.4999 31.1446C60.9431 -16.8847 -54.9583 -12.8817 -86.0113 31.1447L4.47493 292.501C56.746 276.029 167.871 299.484 212.5 261C316.051 171.709 294.889 22.0003 153.5 31.1445C92.9407 35.0612 17.9004 163.774 49.4999 31.1446Z" fill="url(#paint0_linear)"/>
<path d="M210.809 55.6812C211.386 56.2763 212.335 56.2915 212.93 55.7152C213.526 55.1388 213.541 54.1892 212.964 53.5941C212.388 52.999 211.438 52.9838 210.843 53.5601C210.248 54.1365 210.233 55.0861 210.809 55.6812Z" fill="#A7CBF6"/>
<path d="M209.201 156.078C209.777 156.673 210.727 156.688 211.322 156.112C211.917 155.535 211.932 154.586 211.356 153.991C210.78 153.396 209.83 153.38 209.235 153.957C208.64 154.533 208.625 155.483 209.201 156.078Z" fill="#A7CBF6"/>
<path d="M86.1303 113.088C86.1303 113.088 84.4743 112.614 82.5952 113.031C83.2052 111.807 82.6519 109.496 82.6519 109.496C82.6519 109.496 84.481 110.148 86.187 109.553C85.6406 111.273 86.1303 113.088 86.1303 113.088Z" fill="#A7CBF6"/>
<path d="M204.993 153.888C204.993 153.888 201.81 152.825 198.282 153.427C199.317 151.162 198.036 146.705 198.036 146.705C198.036 146.705 201.571 148.132 204.747 147.166C203.886 150.392 204.993 153.888 204.993 153.888Z" fill="#A7CBF6"/>
<path d="M252.426 106.559C252.426 106.559 250.77 106.086 248.891 106.503C249.501 105.278 248.948 102.968 248.948 102.968C248.948 102.968 250.777 103.62 252.483 103.024C251.939 104.748 252.426 106.559 252.426 106.559Z" fill="#A7CBF6"/>
<path d="M14.7783 108.408C14.7783 108.408 13.1222 107.934 11.2432 108.351C11.8531 107.127 11.2998 104.816 11.2998 104.816C11.2998 104.816 13.1289 105.469 14.8349 104.873C14.2915 106.597 14.7783 108.408 14.7783 108.408Z" fill="#A7CBF6"/>
<path d="M238.365 101.383C238.941 101.978 239.891 101.994 240.486 101.417C241.081 100.841 241.096 99.8914 240.52 99.2963C239.944 98.7012 238.994 98.686 238.399 99.2623C237.804 99.8386 237.789 100.788 238.365 101.383Z" fill="#A7CBF6"/>
<path d="M38.7376 113.743C39.3139 114.338 40.2636 114.353 40.8587 113.777C41.4538 113.2 41.469 112.251 40.8927 111.656C40.3163 111.061 39.3667 111.045 38.7716 111.622C38.1765 112.198 38.1613 113.148 38.7376 113.743Z" fill="#A7CBF6"/>
<path d="M53.8547 185.412C55.1995 186.801 57.4153 186.836 58.8038 185.492C60.1924 184.147 60.2279 181.931 58.8832 180.543C57.5384 179.154 55.3226 179.118 53.934 180.463C52.5455 181.808 52.51 184.024 53.8547 185.412Z" fill="#A7CBF6"/>
<path d="M49.1209 171.9C49.6972 172.495 50.6469 172.51 51.242 171.934C51.8371 171.358 51.8523 170.408 51.276 169.813C50.6996 169.218 49.75 169.203 49.1549 169.779C48.5598 170.355 48.5446 171.305 49.1209 171.9Z" fill="#A7CBF6"/>
<path d="M211.939 161.778C212.131 161.977 212.447 161.982 212.646 161.79C212.844 161.598 212.849 161.281 212.657 161.083C212.465 160.884 212.148 160.879 211.95 161.071C211.752 161.264 211.746 161.58 211.939 161.778Z" fill="#A7CBF6"/>
<path d="M233.194 159.291C233.77 159.886 234.72 159.901 235.315 159.325C235.91 158.748 235.926 157.799 235.349 157.204C234.773 156.608 233.823 156.593 233.228 157.17C232.633 157.746 232.618 158.695 233.194 159.291Z" fill="#A7CBF6"/>
<path d="M199.862 165.121C200.439 165.716 201.227 165.887 201.624 165.503C202.021 165.119 201.875 164.325 201.299 163.73C200.723 163.135 199.934 162.964 199.537 163.348C199.14 163.732 199.286 164.526 199.862 165.121Z" fill="#A7CBF6"/>
<path d="M81.0691 186.202C81.4533 186.598 82.0864 186.608 82.4831 186.224C82.8798 185.84 82.89 185.207 82.5057 184.81C82.1215 184.413 81.4884 184.403 81.0917 184.787C80.695 185.172 80.6848 185.805 81.0691 186.202Z" fill="#A7CBF6"/>
<path d="M16.1965 152.277C16.7728 152.872 17.8833 152.732 18.6767 151.963C19.4702 151.195 19.6462 150.09 19.0699 149.495C18.4936 148.899 17.3831 149.04 16.5897 149.808C15.7962 150.577 15.6202 151.682 16.1965 152.277Z" fill="#A7CBF6"/>
<path d="M220.874 67.5111C221.258 67.9078 221.892 67.918 222.288 67.5337C222.685 67.1495 222.695 66.5165 222.311 66.1197C221.927 65.723 221.294 65.7128 220.897 66.0971C220.5 66.4813 220.49 67.1144 220.874 67.5111Z" fill="#A7CBF6"/>
<path d="M278.306 102.377C278.69 102.774 279.323 102.784 279.72 102.4C280.117 102.016 280.127 101.383 279.743 100.986C279.358 100.589 278.725 100.579 278.329 100.963C277.932 101.347 277.922 101.981 278.306 102.377Z" fill="#A7CBF6"/>
<path d="M4.33145 98.341C4.90778 98.9361 5.69659 99.107 6.09332 98.7228C6.49006 98.3386 6.34447 97.5447 5.76814 96.9496C5.19181 96.3545 4.403 96.1835 4.00626 96.5678C3.60953 96.952 3.75512 97.7459 4.33145 98.341Z" fill="#A7CBF6"/>
<path d="M92.8013 126.597C93.6237 127.346 94.3027 127.839 95.3022 128.6C95.8131 128.989 96.446 128.376 96.0705 127.856C95.3576 126.874 94.8836 126.253 94.1082 125.408C93.9111 125.192 93.9002 124.872 94.0858 124.667C94.7874 123.879 95.5232 122.963 96.2273 122.014C96.595 121.518 95.9564 120.859 95.452 121.214C94.5033 121.885 93.6148 122.611 92.8023 123.354C92.5945 123.542 92.2687 123.54 92.0528 123.342C91.243 122.588 90.4684 121.927 89.7797 121.373C89.2718 120.962 88.6169 121.584 89.0051 122.117C89.6161 122.949 90.2842 123.841 90.8725 124.568C91.0475 124.786 91.0457 125.093 90.8632 125.289C90.1268 126.085 89.4789 126.852 88.9444 127.535C88.5545 128.027 89.2027 128.709 89.7197 128.342C90.5266 127.764 91.3902 127.131 92.0928 126.571C92.2976 126.398 92.598 126.413 92.8013 126.597Z" fill="#A7CBF6"/>
<path d="M56.5 165C66.7173 165 75 156.717 75 146.5C75 136.283 66.7173 128 56.5 128C46.2827 128 38 136.283 38 146.5C38 156.717 46.2827 165 56.5 165Z" fill="url(#paint1_linear)"/>
<path d="M36.5 185C50.031 185 61 174.031 61 160.5C61 146.969 50.031 136 36.5 136C22.969 136 12 146.969 12 160.5C12 174.031 22.969 185 36.5 185Z" fill="url(#paint2_linear)"/>
<path d="M36.5 185C50.031 185 61 174.031 61 160.5C61 146.969 50.031 136 36.5 136C22.969 136 12 146.969 12 160.5C12 174.031 22.969 185 36.5 185Z" fill="url(#paint3_linear)"/>
<path d="M45.3339 137.055C31.9096 136.242 19.4566 144.551 15.9444 157.603C14.2273 163.963 14.9211 170.429 17.462 176.099C20.5839 179.864 24.8419 182.738 29.9063 184.128C43.0444 187.718 56.5815 179.899 60.137 166.672C63.4584 154.309 56.911 141.598 45.3339 137.055Z" fill="url(#paint4_radial)"/>
</g>
<defs>
<linearGradient id="paint0_linear" x1="-55.5001" y1="282" x2="250.639" y2="30.3859" gradientUnits="userSpaceOnUse">
<stop stop-color="#512BD4"/>
<stop offset="1" stop-color="#3E8EED" stop-opacity="0"/>
</linearGradient>
<linearGradient id="paint1_linear" x1="70.1211" y1="134.077" x2="19.5" y2="188" gradientUnits="userSpaceOnUse">
<stop stop-color="#6366E1" stop-opacity="0"/>
<stop offset="1" stop-color="#6366E1"/>
</linearGradient>
<linearGradient id="paint2_linear" x1="36.5" y1="136" x2="36.5" y2="185" gradientUnits="userSpaceOnUse">
<stop stop-color="#E1EFFF"/>
<stop offset="0.510023" stop-color="#A7CBF6"/>
</linearGradient>
<linearGradient id="paint3_linear" x1="36.5" y1="136" x2="36.5" y2="185" gradientUnits="userSpaceOnUse">
<stop stop-color="#E1EFFF"/>
<stop offset="0.510023" stop-color="#A7CBF6"/>
</linearGradient>
<radialGradient id="paint4_radial" cx="0" cy="0" r="1" gradientUnits="userSpaceOnUse" gradientTransform="translate(61.1343 153.401) rotate(139.791) scale(49.3957 47.7503)">
<stop stop-color="#6366E1"/>
<stop offset="0.867595" stop-color="#A7CBF6"/>
</radialGradient>
<clipPath id="clip0">
<rect width="287" height="197" rx="2" fill="white"/>
</clipPath>
</defs>
</svg>
