<svg width="287" height="197" viewBox="0 0 287 197" fill="none" xmlns="http://www.w3.org/2000/svg">
<g clip-path="url(#clip0)">
<rect width="287" height="197" rx="2" fill="#FBC2AF"/>
<path d="M219.921 243.821C209.261 292.03 292.403 274.206 335.253 241.548L327.5 -34.9205C277.337 -34.9205 148.5 -34.7076 94.5 -7.0004C-14.5001 8.49963 -13.731 139.299 77.4999 124C102.022 119.887 251.5 101 219.921 243.821Z" fill="url(#paint0_linear)"/>
<path d="M32.6482 92.3797C32.8113 91.5675 32.2851 90.7769 31.4729 90.6138C30.6606 90.4507 29.87 90.9769 29.7069 91.7891C29.5438 92.6013 30.07 93.392 30.8823 93.5551C31.6945 93.7181 32.4851 93.1919 32.6482 92.3797Z" fill="#FBC2AF"/>
<path d="M116.236 36.7469C116.399 35.9347 115.873 35.144 115.061 34.981C114.249 34.8179 113.458 35.3441 113.295 36.1563C113.132 36.9685 113.658 37.7592 114.47 37.9223C115.282 38.0853 116.073 37.5591 116.236 36.7469Z" fill="#FBC2AF"/>
<path d="M150.657 162.484C150.657 162.484 151.206 164.116 152.616 165.427C151.261 165.619 149.672 167.386 149.672 167.386C149.672 167.386 149.172 165.509 147.713 164.442C149.44 163.916 150.657 162.484 150.657 162.484Z" fill="#FBC2AF"/>
<path d="M116.821 41.4537C116.821 41.4537 117.751 44.6776 120.248 47.2417C117.796 47.6746 114.852 51.258 114.852 51.258C114.852 51.258 114.022 47.5372 111.425 45.4699C114.569 44.3489 116.821 41.4537 116.821 41.4537Z" fill="#FBC2AF"/>
<path d="M50.9352 29.2443C50.9352 29.2443 51.4846 30.8768 52.8941 32.1875C51.5396 32.38 49.9508 34.1465 49.9508 34.1465C49.9508 34.1465 49.4504 32.2701 47.9919 31.2032C49.7195 30.6729 50.9352 29.2443 50.9352 29.2443Z" fill="#FBC2AF"/>
<path d="M54.6502 43.7596C54.8133 42.9474 54.287 42.1567 53.4748 41.9937C52.6626 41.8306 51.872 42.3568 51.7089 43.169C51.5458 43.9812 52.072 44.7719 52.8842 44.9349C53.6964 45.098 54.4871 44.5718 54.6502 43.7596Z" fill="#FBC2AF"/>
<path d="M177.034 33.6551C177.198 32.8429 176.671 32.0522 175.859 31.8892C175.047 31.7261 174.256 32.2523 174.093 33.0645C173.93 33.8767 174.456 34.6674 175.268 34.8305C176.081 34.9935 176.871 34.4673 177.034 33.6551Z" fill="#FBC2AF"/>
<path d="M228.526 148.031C228.906 146.135 227.678 144.291 225.783 143.91C223.888 143.529 222.043 144.757 221.663 146.652C221.282 148.548 222.51 150.392 224.405 150.773C226.3 151.154 228.145 149.926 228.526 148.031Z" fill="#FBC2AF"/>
<path d="M220.084 159.595C220.247 158.782 219.721 157.992 218.908 157.829C218.096 157.666 217.306 158.192 217.142 159.004C216.979 159.816 217.506 160.607 218.318 160.77C219.13 160.933 219.921 160.407 220.084 159.595Z" fill="#FBC2AF"/>
<path d="M119.378 31.2574C119.433 30.9867 119.257 30.7231 118.986 30.6688C118.716 30.6144 118.452 30.7898 118.398 31.0606C118.343 31.3313 118.519 31.5949 118.79 31.6492C119.06 31.7036 119.324 31.5282 119.378 31.2574Z" fill="#FBC2AF"/>
<path d="M105.27 15.1658C105.433 14.3536 104.907 13.563 104.095 13.3999C103.282 13.2368 102.492 13.763 102.329 14.5752C102.166 15.3875 102.692 16.1781 103.504 16.3412C104.316 16.5043 105.107 15.978 105.27 15.1658Z" fill="#FBC2AF"/>
<path d="M128.982 39.3059C129.145 38.4937 128.838 37.7471 128.297 37.6384C127.755 37.5297 127.184 38.1 127.021 38.9122C126.858 39.7244 127.165 40.471 127.706 40.5797C128.247 40.6884 128.819 40.1181 128.982 39.3059Z" fill="#FBC2AF"/>
<path d="M213.736 125.171C213.845 124.63 213.494 124.103 212.953 123.994C212.411 123.885 211.884 124.236 211.775 124.777C211.667 125.319 212.018 125.846 212.559 125.955C213.101 126.063 213.628 125.713 213.736 125.171Z" fill="#FBC2AF"/>
<path d="M216.708 56.4647C216.925 55.3817 216.443 54.3716 215.631 54.2085C214.818 54.0454 213.984 54.7911 213.766 55.8741C213.549 56.957 214.031 57.9672 214.843 58.1303C215.655 58.2933 216.49 57.5476 216.708 56.4647Z" fill="#FBC2AF"/>
<path d="M222.604 197.839C222.767 197.027 222.022 196.192 220.939 195.975C219.856 195.757 218.846 196.24 218.683 197.052C218.519 197.864 219.265 198.699 220.348 198.916C221.431 199.134 222.441 198.651 222.604 197.839Z" fill="#FBC2AF"/>
<path d="M228.017 43.8918C228.18 43.0796 227.873 42.333 227.332 42.2243C226.79 42.1156 226.219 42.6859 226.056 43.4981C225.893 44.3103 226.2 45.0569 226.741 45.1656C227.283 45.2743 227.854 44.7041 228.017 43.8918Z" fill="#FBC2AF"/>
<path d="M36.6799 77.3801C36.7887 76.8386 36.4378 76.3115 35.8964 76.2028C35.3549 76.0941 34.8278 76.4449 34.7191 76.9864C34.6104 77.5278 34.9612 78.0549 35.5026 78.1637C36.0441 78.2724 36.5712 77.9216 36.6799 77.3801Z" fill="#FBC2AF"/>
<path d="M32.8088 10.3049C32.9176 9.76343 32.5668 9.23633 32.0253 9.12761C31.4838 9.01888 30.9567 9.3697 30.848 9.91118C30.7393 10.4527 31.0901 10.9797 31.6316 11.0885C32.173 11.1972 32.7001 10.8464 32.8088 10.3049Z" fill="#FBC2AF"/>
<path d="M157.997 149.326C158.147 148.224 158.167 147.385 158.227 146.13C158.258 145.489 157.394 145.315 157.179 145.919C156.775 147.063 156.532 147.806 156.276 148.924C156.21 149.209 155.952 149.4 155.678 149.363C154.632 149.232 153.46 149.146 152.279 149.105C151.662 149.083 151.481 149.983 152.06 150.197C153.15 150.598 154.253 150.917 155.325 151.165C155.598 151.229 155.781 151.499 155.741 151.789C155.579 152.884 155.474 153.897 155.409 154.778C155.359 155.429 156.242 155.616 156.461 154.994C156.8 154.018 157.155 152.962 157.42 152.065C157.501 151.797 157.754 151.625 158.019 151.664C159.092 151.819 160.092 151.917 160.957 151.97C161.584 152.012 161.777 151.091 161.182 150.874C160.248 150.537 159.237 150.185 158.377 149.924C158.119 149.853 157.96 149.598 157.997 149.326Z" fill="#FBC2AF"/>
<path d="M322.562 14.7451C295.732 6.69109 267.877 -10.6915 195.629 -49.0697C193.193 -50.3686 190.656 -51.7107 188.054 -53.1025C183.52 -18.4888 202.219 16.2973 235.907 30.6546C266.274 43.5965 300.184 36.2642 322.562 14.7451Z" fill="url(#paint1_linear)"/>
<path d="M271.043 126.186C285.427 132.316 302.056 125.625 308.186 111.242C314.316 96.8586 307.625 80.2292 293.242 74.0993C278.858 67.9693 262.229 74.6601 256.099 89.0435C249.969 103.427 256.66 120.056 271.043 126.186Z" fill="url(#paint2_linear)"/>
</g>
<defs>
<linearGradient id="paint0_linear" x1="277" y1="-40.0004" x2="113.044" y2="171.258" gradientUnits="userSpaceOnUse">
<stop stop-color="#E86E58"/>
<stop offset="1" stop-color="#EF9B89" stop-opacity="0"/>
</linearGradient>
<linearGradient id="paint1_linear" x1="150.446" y1="-37.4506" x2="288.752" y2="21.4932" gradientUnits="userSpaceOnUse">
<stop offset="0.1075" stop-color="#FDC9B5"/>
<stop offset="0.477" stop-color="#F9BBA8"/>
<stop offset="1" stop-color="#ED9583"/>
</linearGradient>
<linearGradient id="paint2_linear" x1="243.049" y1="83.4823" x2="303.148" y2="109.095" gradientUnits="userSpaceOnUse">
<stop offset="0.1513" stop-color="#FDC9B5"/>
<stop offset="0.8365" stop-color="#ED9583"/>
</linearGradient>
<clipPath id="clip0">
<rect width="287" height="197" rx="2" fill="white"/>
</clipPath>
</defs>
</svg>
