<svg width="287" height="197" viewBox="0 0 287 197" fill="none" xmlns="http://www.w3.org/2000/svg">
<g clip-path="url(#clip0)">
<rect width="287" height="197" rx="2" fill="#DFD8F7"/>
<path d="M297.5 127.5C382.156 100.655 391.601 142.953 419.192 188.619L30.4998 280.5C-37.9731 165.885 -108.792 61.8857 -75.589 5.32131C-34.0854 -65.3842 10.9094 -8.6902 42.9998 16.4999C72.6783 39.7966 177.175 -9.50014 217.5 41.4999C257.824 92.4999 212.844 154.345 297.5 127.5Z" fill="url(#paint0_linear)"/>
<path d="M48.8067 57.9055C48.5561 58.6951 47.7129 59.1321 46.9233 58.8815C46.1336 58.631 45.6966 57.7877 45.9472 56.9981C46.1978 56.2085 47.041 55.7715 47.8306 56.022C48.6202 56.2726 49.0573 57.1158 48.8067 57.9055Z" fill="#DFD8F7"/>
<path d="M95.0074 147.054C94.7568 147.844 93.9136 148.281 93.124 148.03C92.3343 147.779 91.8973 146.936 92.1479 146.147C92.3984 145.357 93.2417 144.92 94.0313 145.17C94.8209 145.421 95.2579 146.264 95.0074 147.054Z" fill="#DFD8F7"/>
<path d="M186.003 53.7036C186.003 53.7036 187.274 52.5412 189.142 52.0768C188.05 51.2526 187.515 48.9378 187.515 48.9378C187.515 48.9378 186.169 50.3372 184.376 50.5645C185.632 51.861 186.003 53.7036 186.003 53.7036Z" fill="#DFD8F7"/>
<path d="M97.7979 143.219C97.7979 143.219 100.172 140.848 103.599 139.814C101.663 138.248 100.822 133.687 100.822 133.687C100.822 133.687 98.2946 136.541 95.0209 137.092C97.2297 139.595 97.7979 143.219 97.7979 143.219Z" fill="#DFD8F7"/>
<path d="M34.2388 122.001C34.2388 122.001 35.51 120.839 37.3779 120.375C36.2859 119.55 35.7511 117.236 35.7511 117.236C35.7511 117.236 34.4047 118.635 32.612 118.862C33.8669 120.163 34.2388 122.001 34.2388 122.001Z" fill="#DFD8F7"/>
<path d="M247.785 17.7036C247.785 17.7036 249.056 16.5412 250.924 16.0768C249.832 15.2526 249.297 12.9378 249.297 12.9378C249.297 12.9378 247.951 14.3373 246.158 14.5646C247.413 15.865 247.785 17.7036 247.785 17.7036Z" fill="#DFD8F7"/>
<path d="M44.5171 111.1C44.2666 111.889 43.4233 112.326 42.6337 112.076C41.8441 111.825 41.4071 110.982 41.6577 110.192C41.9082 109.403 42.7514 108.966 43.5411 109.216C44.3307 109.467 44.7677 110.31 44.5171 111.1Z" fill="#DFD8F7"/>
<path d="M146.708 179.196C146.457 179.986 145.614 180.423 144.824 180.173C144.035 179.922 143.598 179.079 143.848 178.289C144.099 177.499 144.942 177.062 145.732 177.313C146.521 177.564 146.958 178.407 146.708 179.196Z" fill="#DFD8F7"/>
<path d="M228.717 33.1603C228.466 33.95 227.623 34.387 226.833 34.1364C226.044 33.8859 225.607 33.0426 225.857 32.253C226.108 31.4634 226.951 31.0264 227.741 31.2769C228.53 31.5275 228.967 32.3707 228.717 33.1603Z" fill="#DFD8F7"/>
<path d="M247.138 104.053C246.554 105.895 244.586 106.915 242.744 106.33C240.901 105.746 239.882 103.778 240.466 101.936C241.051 100.093 243.019 99.0736 244.861 99.6582C246.703 100.243 247.723 102.21 247.138 104.053Z" fill="#DFD8F7"/>
<path d="M245.351 89.8469C245.101 90.6365 244.257 91.0735 243.468 90.8229C242.678 90.5724 242.241 89.7291 242.492 88.9395C242.742 88.1499 243.585 87.7129 244.375 87.9634C245.165 88.214 245.602 89.0572 245.351 89.8469Z" fill="#DFD8F7"/>
<path d="M95.0988 153.378C95.0153 153.641 94.7342 153.787 94.471 153.703C94.2078 153.62 94.0621 153.338 94.1456 153.075C94.2292 152.812 94.5103 152.666 94.7735 152.75C95.0367 152.833 95.1823 153.114 95.0988 153.378Z" fill="#DFD8F7"/>
<path d="M74.9634 160.627C74.7129 161.417 73.8696 161.854 73.08 161.603C72.2904 161.353 71.8534 160.509 72.1039 159.72C72.3545 158.93 73.1977 158.493 73.9874 158.744C74.777 158.994 75.214 159.838 74.9634 160.627Z" fill="#DFD8F7"/>
<path d="M107.398 150.986C107.148 151.775 106.518 152.28 105.992 152.113C105.465 151.946 105.242 151.171 105.492 150.381C105.743 149.591 106.373 149.087 106.899 149.254C107.425 149.421 107.649 150.196 107.398 150.986Z" fill="#DFD8F7"/>
<path d="M223.13 116.893C222.963 117.419 222.401 117.711 221.875 117.544C221.348 117.377 221.057 116.815 221.224 116.288C221.391 115.762 221.953 115.47 222.48 115.637C223.006 115.804 223.297 116.367 223.13 116.893Z" fill="#DFD8F7"/>
<path d="M192.464 178.447C192.13 179.5 191.219 180.151 190.429 179.9C189.64 179.65 189.27 178.593 189.605 177.54C189.939 176.487 190.85 175.837 191.639 176.087C192.429 176.338 192.798 177.395 192.464 178.447Z" fill="#DFD8F7"/>
<path d="M266.074 57.6044C265.823 58.394 264.767 58.7633 263.714 58.4292C262.661 58.0952 262.011 57.1842 262.261 56.3946C262.512 55.605 263.568 55.2357 264.621 55.5697C265.674 55.9038 266.324 56.8148 266.074 57.6044Z" fill="#DFD8F7"/>
<path d="M196.272 194.923C196.021 195.713 195.392 196.218 194.865 196.051C194.339 195.884 194.115 195.108 194.366 194.318C194.616 193.529 195.246 193.024 195.773 193.191C196.299 193.358 196.523 194.134 196.272 194.923Z" fill="#DFD8F7"/>
<path d="M45.0721 72.9819C44.9051 73.5083 44.3429 73.7996 43.8165 73.6326C43.2901 73.4656 42.9988 72.9034 43.1658 72.377C43.3328 71.8506 43.895 71.5592 44.4214 71.7263C44.9478 71.8933 45.2392 72.4555 45.0721 72.9819Z" fill="#DFD8F7"/>
<path d="M9.20886 129.796C9.04182 130.323 8.47966 130.614 7.95325 130.447C7.42683 130.28 7.13549 129.718 7.30253 129.191C7.46957 128.665 8.03173 128.374 8.55815 128.541C9.08457 128.708 9.3759 129.27 9.20886 129.796Z" fill="#DFD8F7"/>
<path d="M252.647 4.03465C252.396 4.82428 251.767 5.32899 251.24 5.16195C250.714 4.99491 250.49 4.21937 250.741 3.42975C250.991 2.64012 251.621 2.13541 252.148 2.30245C252.674 2.46949 252.898 3.24502 252.647 4.03465Z" fill="#DFD8F7"/>
<path d="M186.055 68.7709C185.653 69.8075 185.265 70.5517 184.709 71.6787C184.425 72.2547 183.586 71.9882 183.69 71.3553C183.89 70.1587 184.037 69.3909 184.355 68.289C184.435 68.0077 184.302 67.7164 184.044 67.6155C183.065 67.2233 181.998 66.7314 180.945 66.196C180.395 65.916 180.672 65.041 181.282 65.1338C182.43 65.3114 183.55 65.5659 184.608 65.8682C184.878 65.9443 185.169 65.7969 185.274 65.5236C185.662 64.4874 186.061 63.5502 186.431 62.7475C186.702 62.1533 187.565 62.4176 187.455 63.068C187.28 64.0855 187.079 65.1813 186.877 66.0945C186.818 66.368 186.956 66.6419 187.207 66.7359C188.221 67.1199 189.143 67.5179 189.926 67.8909C190.494 68.1575 190.218 69.0569 189.591 68.9587C188.611 68.8011 187.556 68.6196 186.678 68.4319C186.417 68.3684 186.155 68.5151 186.055 68.7709Z" fill="#DFD8F7"/>
<path d="M-55.4313 176.025C-26.9896 186.151 2.04871 206.373 77.7293 251.603C80.2804 253.133 82.9382 254.715 85.6641 256.354C92.4228 219.344 74.1846 180.887 38.7037 163.605C6.72046 148.027 -30.1762 154.078 -55.4313 176.025Z" fill="url(#paint1_radial)"/>
<path d="M302.189 -2.48245C294.372 -16.0229 277.058 -20.6622 263.517 -12.8446C249.977 -5.02704 245.337 12.2871 253.155 25.8275C260.973 39.368 278.287 44.0073 291.827 36.1897C305.368 28.3721 310.007 11.058 302.189 -2.48245Z" fill="url(#paint2_radial)"/>
</g>
<defs>
<linearGradient id="paint0_linear" x1="-133" y1="289.5" x2="283.154" y2="51.786" gradientUnits="userSpaceOnUse">
<stop offset="0.12346" stop-color="#512BD4"/>
<stop offset="0.903941" stop-color="#DFD8F7"/>
</linearGradient>
<radialGradient id="paint1_radial" cx="0" cy="0" r="1" gradientUnits="userSpaceOnUse" gradientTransform="translate(-17.9998 205.5) rotate(-2.57558) scale(144.646 56.5007)">
<stop offset="0.12346" stop-color="#512BD4"/>
<stop offset="0.903941" stop-color="#DFD8F7"/>
</radialGradient>
<radialGradient id="paint2_radial" cx="0" cy="0" r="1" gradientUnits="userSpaceOnUse" gradientTransform="translate(308.446 -43.2023) rotate(123.064) scale(96.7187 97.3437)">
<stop offset="0.12346" stop-color="#512BD4"/>
<stop offset="1" stop-color="#DFD8F7"/>
</radialGradient>
<clipPath id="clip0">
<rect width="287" height="197" rx="2" fill="white"/>
</clipPath>
</defs>
</svg>
