<svg width="287" height="197" viewBox="0 0 287 197" fill="none" xmlns="http://www.w3.org/2000/svg">
<g clip-path="url(#clip0)">
<rect width="287" height="197" rx="2" fill="#FFE5B9"/>
<path d="M265.983 60.4296C315.357 60.4296 334.469 21.8732 335 -32L291.466 -16.6831L-23.8876 -20.9085L-43 186.134L-1.05899 268C4.95786 231.556 32.9185 175.782 75.3904 174.514C128.48 172.93 161.927 126.451 174.138 110.077C186.348 93.7042 216.61 60.4296 265.983 60.4296Z" fill="url(#paint0_linear)"/>
<path d="M83.1336 26.8377C83.2966 26.0255 82.7704 25.2349 81.9582 25.0718C81.146 24.9087 80.3554 25.4349 80.1923 26.2471C80.0292 27.0594 80.5554 27.85 81.3676 28.0131C82.1798 28.1762 82.9705 27.6499 83.1336 26.8377Z" fill="#FFE5B9"/>
<path d="M117.554 152.574C117.554 152.574 118.103 154.207 119.512 155.518C118.158 155.71 116.569 157.477 116.569 157.477C116.569 157.477 116.069 155.6 114.61 154.533C116.337 154.007 117.554 152.574 117.554 152.574Z" fill="#FFE5B9"/>
<path d="M83.718 31.5445C83.718 31.5445 84.6478 34.7684 87.1456 37.3325C84.6929 37.7655 81.7493 41.3488 81.7493 41.3488C81.7493 41.3488 80.9193 37.628 78.3217 35.5607C81.4664 34.4397 83.718 31.5445 83.718 31.5445Z" fill="#FFE5B9"/>
<path d="M17.8324 19.3351C17.8324 19.3351 18.3818 20.9676 19.7913 22.2784C18.4368 22.4708 16.848 24.2373 16.848 24.2373C16.848 24.2373 16.3476 22.3609 14.8891 21.294C16.6167 20.7637 17.8324 19.3351 17.8324 19.3351Z" fill="#FFE5B9"/>
<path d="M21.5476 33.8504C21.7107 33.0382 21.1845 32.2476 20.3723 32.0845C19.5601 31.9214 18.7694 32.4476 18.6063 33.2598C18.4432 34.072 18.9695 34.8627 19.7817 35.0258C20.5939 35.1889 21.3845 34.6626 21.5476 33.8504Z" fill="#FFE5B9"/>
<path d="M143.932 23.7459C144.095 22.9337 143.569 22.1431 142.757 21.98C141.944 21.8169 141.154 22.3431 140.991 23.1553C140.828 23.9675 141.354 24.7582 142.166 24.9213C142.978 25.0844 143.769 24.5581 143.932 23.7459Z" fill="#FFE5B9"/>
<path d="M144.981 191.23C145.144 190.418 144.618 189.627 143.805 189.464C142.993 189.301 142.203 189.827 142.039 190.64C141.876 191.452 142.403 192.243 143.215 192.406C144.027 192.569 144.818 192.043 144.981 191.23Z" fill="#FFE5B9"/>
<path d="M195.423 138.121C195.803 136.226 194.575 134.381 192.68 134.001C190.785 133.62 188.94 134.848 188.56 136.743C188.179 138.638 189.407 140.483 191.302 140.864C193.197 141.244 195.042 140.017 195.423 138.121Z" fill="#FFE5B9"/>
<path d="M186.981 149.685C187.144 148.873 186.618 148.083 185.806 147.919C184.994 147.756 184.203 148.283 184.04 149.095C183.877 149.907 184.403 150.698 185.215 150.861C186.027 151.024 186.818 150.498 186.981 149.685Z" fill="#FFE5B9"/>
<path d="M86.2752 21.3483C86.3295 21.0775 86.1541 20.814 85.8834 20.7596C85.6126 20.7052 85.3491 20.8806 85.2947 21.1514C85.2404 21.4221 85.4158 21.6857 85.6865 21.74C85.9572 21.7944 86.2208 21.619 86.2752 21.3483Z" fill="#FFE5B9"/>
<path d="M72.1673 5.25665C72.3303 4.44443 71.8041 3.65381 70.9919 3.49072C70.1797 3.32764 69.3891 3.85384 69.226 4.66606C69.0629 5.47827 69.5891 6.26893 70.4013 6.43202C71.2135 6.5951 72.0042 6.06887 72.1673 5.25665Z" fill="#FFE5B9"/>
<path d="M95.8787 29.3967C96.0418 28.5845 95.7351 27.8379 95.1936 27.7292C94.6521 27.6205 94.0809 28.1908 93.9179 29.003C93.7548 29.8152 94.0615 30.5618 94.603 30.6705C95.1445 30.7792 95.7156 30.2089 95.8787 29.3967Z" fill="#FFE5B9"/>
<path d="M180.633 115.262C180.742 114.72 180.391 114.193 179.85 114.085C179.308 113.976 178.781 114.327 178.672 114.868C178.564 115.41 178.915 115.937 179.456 116.045C179.997 116.154 180.525 115.803 180.633 115.262Z" fill="#FFE5B9"/>
<path d="M183.605 46.5555C183.822 45.4726 183.34 44.4624 182.528 44.2994C181.716 44.1363 180.881 44.882 180.664 45.9649C180.446 47.0479 180.928 48.058 181.741 48.2211C182.553 48.3842 183.388 47.6385 183.605 46.5555Z" fill="#FFE5B9"/>
<path d="M189.501 187.93C189.664 187.118 188.919 186.283 187.836 186.066C186.753 185.848 185.743 186.33 185.579 187.143C185.416 187.955 186.162 188.79 187.245 189.007C188.328 189.224 189.338 188.742 189.501 187.93Z" fill="#FFE5B9"/>
<path d="M194.914 33.9827C195.077 33.1704 194.77 32.4239 194.229 32.3151C193.687 32.2064 193.116 32.7767 192.953 33.5889C192.79 34.4011 193.097 35.1477 193.638 35.2564C194.18 35.3652 194.751 34.7949 194.914 33.9827Z" fill="#FFE5B9"/>
<path d="M3.57716 67.4709C3.68589 66.9294 3.33507 66.4023 2.79359 66.2936C2.25211 66.1849 1.72503 66.5357 1.6163 67.0772C1.50757 67.6187 1.85838 68.1458 2.39986 68.2545C2.94134 68.3632 3.46844 68.0124 3.57716 67.4709Z" fill="#FFE5B9"/>
<path d="M124.894 139.417C125.044 138.315 125.065 137.476 125.125 136.221C125.155 135.579 124.291 135.406 124.076 136.01C123.672 137.154 123.429 137.897 123.173 139.015C123.107 139.3 122.85 139.491 122.576 139.454C121.529 139.323 120.357 139.237 119.176 139.195C118.559 139.174 118.379 140.074 118.957 140.288C120.048 140.689 121.15 141.008 122.223 141.256C122.496 141.32 122.679 141.59 122.638 141.88C122.477 142.974 122.372 143.987 122.306 144.869C122.256 145.52 123.139 145.707 123.358 145.085C123.697 144.109 124.052 143.053 124.317 142.156C124.398 141.888 124.652 141.716 124.916 141.755C125.99 141.91 126.989 142.008 127.855 142.061C128.481 142.103 128.675 141.182 128.079 140.964C127.145 140.628 126.134 140.276 125.275 140.015C125.016 139.944 124.857 139.689 124.894 139.417Z" fill="#FFE5B9"/>
<path d="M22.668 153.421C25.107 151.479 25.2231 148.776 25.3328 146.156C25.4361 143.627 25.5393 141.239 27.6815 139.536C27.6944 139.523 27.7074 139.516 27.7203 139.503C29.8238 137.858 32.0434 138.348 34.3986 138.865C36.928 139.426 39.5477 139.981 42.0771 137.987C44.6194 135.961 44.7032 133.219 44.7807 130.573C44.8387 128.67 44.8968 126.857 45.8776 125.379C45.2711 125.508 44.671 125.663 44.0709 125.831C43.4837 127.315 43.4321 128.941 43.3869 130.541C43.316 132.98 43.2514 135.283 41.2124 136.903C39.2186 138.503 37.0183 138.026 34.7019 137.516C32.2564 136.974 29.4882 136.361 26.8685 138.419C26.8556 138.432 26.8363 138.445 26.8234 138.458C24.1843 140.562 24.0552 143.51 23.952 146.111C23.8488 148.524 23.7584 150.802 21.8162 152.344C20.9774 153.009 20.0676 153.312 19.1191 153.415C19.0417 153.886 18.9707 154.357 18.9126 154.835C20.1837 154.744 21.4678 154.37 22.668 153.421Z" fill="#FFE5B9"/>
<path d="M81.9152 157.112C79.2503 156.68 76.2305 156.19 73.6366 158.222C73.6237 158.235 73.6043 158.248 73.5914 158.254C71.0491 160.28 70.9653 163.016 70.8878 165.668C70.8169 168.107 70.7523 170.411 68.7133 172.03C66.7195 173.637 64.5192 173.153 62.2028 172.643C59.7573 172.101 56.9891 171.488 54.3694 173.547C54.3565 173.56 54.3372 173.573 54.3243 173.585C51.6852 175.689 51.5561 178.638 51.4529 181.238C51.3497 183.651 51.2593 185.929 49.3171 187.471C49.3042 187.478 49.2978 187.491 49.2849 187.497C47.2846 189.065 44.9423 188.626 42.4646 188.162C39.9868 187.697 37.4252 187.226 35.1797 188.833C35.6314 189.11 36.083 189.375 36.5412 189.626C38.1995 188.788 40.1546 189.149 42.2065 189.53C44.7552 190.007 47.6459 190.549 50.143 188.594C50.1559 188.581 50.1688 188.575 50.1882 188.562C52.6272 186.62 52.7434 183.916 52.8531 181.296C52.9563 178.767 53.0596 176.379 55.2018 174.676C55.2147 174.663 55.2276 174.657 55.2405 174.644C57.344 172.998 59.5637 173.489 61.9188 174.005C64.4482 174.566 67.0679 175.128 69.5973 173.127C72.1396 171.101 72.2235 168.359 72.3009 165.713C72.3719 163.274 72.4364 160.971 74.4754 159.345C74.4883 159.338 74.5012 159.325 74.5141 159.319C76.6241 157.667 79.0954 158.067 81.7087 158.487C83.838 158.829 86.0189 159.183 87.9547 158.306C87.9418 157.79 87.916 157.28 87.8837 156.764C86.2125 157.803 84.1219 157.467 81.9152 157.112Z" fill="#FFE5B9"/>
<path d="M80.5212 167.01C80.5083 167.023 80.4889 167.036 80.476 167.043C77.9337 169.069 77.8498 171.804 77.7724 174.456C77.7014 176.896 77.6369 179.199 75.5979 180.819C73.5783 182.393 71.4038 181.941 69.0873 181.432C66.6419 180.89 63.8737 180.277 61.254 182.335C61.2411 182.348 61.2218 182.361 61.2088 182.374C58.5698 184.477 58.4407 187.426 58.3375 190.026C58.2859 191.291 58.2278 192.517 57.9116 193.62C58.4149 193.556 58.9118 193.478 59.4086 193.388C59.6344 192.317 59.6796 191.194 59.7248 190.084C59.828 187.555 59.9313 185.168 62.0735 183.464C64.1899 181.812 66.4225 182.277 68.7841 182.8C71.3135 183.361 73.9332 183.922 76.4626 181.922C79.0048 179.896 79.0887 177.154 79.1662 174.508C79.2371 172.069 79.3017 169.765 81.3407 168.139C81.3536 168.133 81.3665 168.12 81.3794 168.114C83.0828 166.784 85.0121 166.784 87.064 167.055C87.1673 166.604 87.264 166.146 87.3479 165.687C85.0766 165.371 82.6505 165.339 80.5212 167.01Z" fill="#FFE5B9"/>
<path d="M21.5712 163.184C24.1328 163.661 27.0235 164.21 29.5465 162.21C31.9855 160.267 32.1017 157.564 32.2113 154.944C32.3146 152.415 32.4178 150.027 34.5601 148.324C34.573 148.311 34.5859 148.305 34.5988 148.292C36.7023 146.646 38.922 147.137 41.2771 147.653C43.8065 148.214 46.4262 148.776 48.9556 146.775C51.4979 144.749 51.5818 142.007 51.6592 139.361C51.7302 136.922 51.7947 134.619 53.8337 132.993C53.8466 132.986 53.8595 132.973 53.8724 132.967C55.9824 131.315 58.4537 131.715 61.0669 132.135C63.6221 132.547 66.2677 132.98 68.4615 131.263C68.4744 131.257 68.4873 131.244 68.5002 131.238C69.3003 130.599 69.8359 129.831 70.2037 128.986C69.7972 128.76 69.3778 128.54 68.9648 128.334C68.6744 129.037 68.255 129.657 67.6356 130.154C67.6291 130.16 67.6162 130.167 67.6098 130.173C65.8999 131.515 63.6608 131.154 61.2992 130.767C58.6343 130.334 55.6146 129.844 53.0207 131.876C53.0078 131.889 52.9884 131.902 52.9755 131.909C50.4332 133.935 50.3493 136.671 50.2719 139.323C50.2009 141.762 50.1364 144.065 48.0974 145.685C46.11 147.298 43.9033 146.808 41.5868 146.298C39.1413 145.756 36.3732 145.143 33.7535 147.201C33.7406 147.214 33.7212 147.227 33.7083 147.24C31.0693 149.343 30.9402 152.292 30.837 154.893C30.7337 157.306 30.6434 159.583 28.7012 161.126C28.6883 161.132 28.6818 161.145 28.6689 161.151C26.6686 162.719 24.3264 162.281 21.8486 161.816C20.8033 161.622 19.7387 161.429 18.6934 161.39C18.7192 161.855 18.7643 162.319 18.8095 162.784C19.687 162.829 20.6162 163.003 21.5712 163.184Z" fill="#FFE5B9"/>
<path d="M22.0358 172.54C22.0423 172.534 22.0552 172.527 22.0616 172.521C23.8619 171.108 26.088 171.527 28.4496 171.966C31.0112 172.443 33.9084 172.992 36.4249 170.992C38.8639 169.049 38.9801 166.346 39.0898 163.726C39.193 161.197 39.2963 158.809 41.4385 157.106C43.5549 155.447 45.7875 155.918 48.1491 156.441C50.6785 157.002 53.2982 157.564 55.8276 155.564C58.3699 153.538 58.4537 150.795 58.5312 148.15C58.6021 145.711 58.6667 143.407 60.7057 141.781C60.7186 141.775 60.7315 141.762 60.7444 141.755C62.8543 140.103 65.3256 140.503 67.9389 140.923C70.4941 141.336 73.1396 141.768 75.3335 140.052C75.3464 140.045 75.3593 140.032 75.3722 140.026C77.0498 138.69 77.5725 136.774 77.7983 134.754C77.3789 134.335 76.9466 133.922 76.5078 133.528C76.3465 135.716 76.0433 137.71 74.5011 138.936C72.8041 140.278 70.5393 139.936 68.1648 139.555C65.4999 139.123 62.4801 138.632 59.8862 140.665C59.8733 140.678 59.8539 140.691 59.841 140.697C57.2987 142.723 57.2149 145.459 57.1374 148.111C57.0665 150.55 57.0019 152.854 54.9629 154.473C52.9497 156.054 50.7688 155.596 48.4524 155.086C46.0069 154.544 43.2387 153.931 40.619 155.989C40.6061 156.002 40.5868 156.015 40.5739 156.028C37.9348 158.132 37.8057 161.08 37.7025 163.681C37.5992 166.094 37.5089 168.372 35.5667 169.914C35.5538 169.92 35.5474 169.933 35.5344 169.94C33.5342 171.508 31.1919 171.069 28.7142 170.604C26.1525 170.127 23.5134 169.63 21.2164 171.43C21.2034 171.443 21.1905 171.45 21.1776 171.463C21.0873 171.54 20.997 171.617 20.9131 171.695C21.0938 172.166 21.2809 172.63 21.4809 173.089C21.6487 172.889 21.8358 172.708 22.0358 172.54Z" fill="#FFE5B9"/>
<path d="M81.3793 147.711C81.3728 147.718 81.3599 147.724 81.3535 147.73C79.6436 149.073 77.4045 148.711 75.0429 148.324C72.378 147.892 69.3583 147.401 66.7644 149.434C66.7515 149.447 66.7321 149.46 66.7192 149.466C64.1769 151.492 64.093 154.228 64.0156 156.88C63.9446 159.319 63.8801 161.623 61.8411 163.242C59.8408 164.836 57.647 164.365 55.3305 163.855C52.885 163.313 50.1169 162.7 47.4972 164.759C47.4843 164.772 47.4649 164.784 47.452 164.797C44.813 166.901 44.6839 169.85 44.5807 172.45C44.4774 174.863 44.3871 177.141 42.4449 178.683C40.4511 180.251 38.083 179.845 35.5923 179.374C33.0307 178.896 30.3916 178.399 28.0945 180.199C28.0816 180.212 28.0687 180.219 28.0558 180.232C27.5525 180.632 27.1396 181.09 26.7847 181.593C27.1008 181.967 27.417 182.329 27.7461 182.684C28.0687 182.168 28.4559 181.703 28.9334 181.322C28.9398 181.316 28.9527 181.309 28.9592 181.303C30.7594 179.89 32.9855 180.309 35.3471 180.748C37.9088 181.225 40.806 181.78 43.3224 179.774C45.7615 177.831 45.8776 175.128 45.9873 172.508C46.0906 169.979 46.1938 167.591 48.336 165.888C48.3489 165.875 48.3618 165.868 48.3747 165.856C50.4783 164.21 52.6979 164.701 55.0531 165.217C57.5825 165.778 60.2022 166.34 62.7316 164.339C65.2738 162.313 65.3577 159.571 65.4352 156.925C65.5061 154.486 65.5707 152.183 67.6096 150.557C69.7583 148.885 72.2103 149.273 74.8364 149.699C77.3916 150.111 80.0372 150.544 82.231 148.827C82.2439 148.821 82.2568 148.808 82.2697 148.802C83.728 147.64 84.3152 146.04 84.5926 144.311C84.2313 143.556 83.8441 142.814 83.4247 142.078C83.2441 144.349 82.9731 146.44 81.3793 147.711Z" fill="#FFE5B9"/>
<path d="M80.2213 179.596C67.7613 195.187 39.2062 193.005 16.4378 174.729C-6.33054 156.452 -14.68 128.996 -2.22002 113.404C10.24 97.8126 38.7951 99.995 61.5635 118.271C84.3254 136.548 92.6813 164.004 80.2213 179.596Z" fill="url(#paint1_radial)"/>
<path d="M53 194C72.33 194 88 178.554 88 159.5C88 140.446 72.33 125 53 125C33.67 125 18 140.446 18 159.5C18 178.554 33.67 194 53 194Z" fill="url(#paint2_radial)"/>
<path d="M27.8111 144.026C30.3212 144.581 32.9215 145.155 35.4444 143.181C35.4573 143.168 35.4767 143.155 35.4896 143.142C38.0319 141.116 38.1158 138.374 38.1932 135.728C38.2642 133.289 38.3287 130.986 40.3677 129.36C40.3806 129.353 40.3935 129.34 40.4064 129.334C42.5164 127.682 44.9877 128.082 47.6009 128.501C50.1561 128.914 52.8017 129.347 54.9955 127.63C55.0084 127.624 55.0213 127.611 55.0342 127.604C56.0085 126.83 56.5893 125.856 56.9571 124.785C56.4731 124.733 55.9956 124.688 55.5117 124.662C55.2213 125.378 54.7955 126.011 54.1696 126.514C54.1631 126.52 54.1502 126.527 54.1438 126.533C52.4339 127.875 50.1949 127.514 47.8332 127.127C45.1684 126.695 42.1486 126.204 39.5547 128.237C39.5418 128.25 39.5224 128.263 39.5095 128.269C36.9672 130.295 36.8833 133.037 36.8059 135.683C36.7349 138.122 36.6704 140.426 34.6314 142.045C32.6247 143.652 30.4373 143.168 28.1208 142.658C26.5206 142.303 24.7849 141.942 23.0427 142.29C22.7201 142.865 22.4168 143.452 22.1265 144.045C23.9203 143.174 25.8173 143.587 27.8111 144.026Z" fill="#F7B548"/>
<path d="M82.2055 171.056C79.5406 170.623 76.5208 170.133 73.9269 172.165C73.914 172.178 73.8946 172.191 73.8817 172.198C71.3394 174.224 71.2556 176.966 71.1781 179.612C71.1072 182.051 71.0426 184.354 69.0036 185.974C66.9776 187.555 64.8095 187.097 62.4931 186.587C60.0347 186.045 57.2407 185.451 54.6081 187.522C52.3949 189.284 51.9497 191.639 51.8013 193.885C52.2658 193.904 52.7304 193.917 53.195 193.917C53.3305 191.891 53.7112 190.02 55.4792 188.613C55.4921 188.6 55.505 188.594 55.5179 188.581C57.6214 186.935 59.8411 187.426 62.1962 187.942C64.7063 188.497 67.3066 189.071 69.8296 187.097C69.8425 187.084 69.8618 187.071 69.8747 187.058C72.417 185.032 72.5009 182.289 72.5783 179.644C72.6493 177.205 72.7138 174.901 74.7528 173.275C74.7657 173.269 74.7786 173.256 74.7915 173.249C76.9015 171.598 79.3728 171.998 81.9861 172.417C83.0572 172.591 84.1412 172.766 85.2059 172.785C85.3994 172.32 85.593 171.856 85.7672 171.378C84.651 171.449 83.4508 171.256 82.2055 171.056Z" fill="#F7B548"/>
<path d="M83.7348 155.305C83.5799 157.847 83.4251 160.254 81.6636 161.654C81.6571 161.66 81.6442 161.667 81.6377 161.673C79.9278 163.016 77.6888 162.654 75.3272 162.267C72.6623 161.835 69.6426 161.344 67.0487 163.377C67.0357 163.39 67.0164 163.403 67.0035 163.409C64.4612 165.435 64.3773 168.178 64.2999 170.823C64.2289 173.262 64.1644 175.566 62.1254 177.185C60.1251 178.798 57.9313 178.308 55.6148 177.798C53.1564 177.256 50.3689 176.669 47.7299 178.734C45.0908 180.837 44.9617 183.786 44.8585 186.386C44.7617 188.671 44.6714 190.826 43.0195 192.362C43.5228 192.516 44.0261 192.658 44.5294 192.794C46.0587 190.961 46.1619 188.671 46.2522 186.445C46.3555 183.915 46.4587 181.528 48.6009 179.824C48.6138 179.811 48.6268 179.805 48.6397 179.792C50.7432 178.147 52.9628 178.637 55.318 179.153C57.828 179.708 60.4284 180.282 62.9513 178.308C62.9642 178.295 62.9836 178.282 62.9965 178.269C65.5388 176.243 65.6226 173.501 65.7001 170.855C65.771 168.416 65.8356 166.113 67.8746 164.487C67.8875 164.48 67.9004 164.467 67.9133 164.461C70.0233 162.809 72.4946 163.209 75.1078 163.629C77.663 164.041 80.3085 164.474 82.5024 162.757C82.5153 162.751 82.5282 162.738 82.5411 162.732C84.7866 160.944 84.9672 158.112 85.135 155.376C85.2705 153.156 85.406 151.046 86.5804 149.556C86.432 149.046 86.2706 148.53 86.0964 148.026C84.0768 149.904 83.9026 152.646 83.7348 155.305Z" fill="#F7B548"/>
<path d="M22.9589 167.365C25.3979 165.422 25.514 162.719 25.6237 160.099C25.727 157.57 25.8302 155.182 27.9724 153.479C27.9854 153.466 27.9983 153.459 28.0112 153.447C30.1147 151.801 32.3343 152.292 34.6895 152.808C37.1995 153.363 39.7999 153.937 42.3228 151.962C42.3357 151.95 42.3551 151.937 42.368 151.924C44.9103 149.898 44.9941 147.155 45.0716 144.51C45.1426 142.071 45.2071 139.767 47.2461 138.148C47.259 138.141 47.2719 138.128 47.2848 138.122C49.3947 136.47 51.8661 136.87 54.4793 137.289C57.0345 137.702 59.68 138.135 61.8739 136.418C61.8868 136.412 61.8997 136.399 61.9126 136.393C64.1581 134.605 64.3387 131.773 64.5065 129.037C64.5581 128.172 64.6162 127.327 64.7259 126.527C64.2807 126.372 63.8354 126.223 63.3838 126.088C63.2354 127.024 63.1773 127.991 63.1128 128.946C62.9579 131.489 62.8031 133.895 61.0415 135.296C61.0351 135.302 61.0222 135.309 61.0157 135.315C59.3058 136.657 57.0668 136.296 54.7052 135.909C52.0403 135.476 49.0205 134.986 46.4266 137.018C46.4137 137.031 46.3943 137.044 46.3814 137.051C43.8391 139.077 43.7553 141.819 43.6778 144.465C43.6069 146.904 43.5423 149.207 41.5033 150.827C39.5095 152.446 37.3092 151.95 34.9928 151.44C32.5344 150.898 29.7404 150.304 27.1078 152.375C24.4687 154.479 24.3397 157.428 24.2364 160.028C24.1332 162.441 24.0429 164.719 22.1007 166.261C21.3006 166.881 20.4553 167.19 19.5713 167.313C19.681 167.765 19.7971 168.223 19.9197 168.674C20.9586 168.526 21.991 168.132 22.9589 167.365Z" fill="#F7B548"/>
<path d="M79.56 138.948C77.2112 140.819 77.0306 143.716 76.8564 146.517C76.7015 149.059 76.5466 151.466 74.7851 152.866C74.7787 152.872 74.7658 152.879 74.7593 152.885C73.0494 154.227 70.8104 153.866 68.4488 153.479C65.7839 153.047 62.7641 152.556 60.1702 154.589C60.1573 154.602 60.1379 154.615 60.125 154.621C57.5827 156.647 57.4989 159.389 57.4214 162.035C57.3505 164.474 57.2859 166.778 55.2469 168.397C53.2338 169.997 51.0528 169.52 48.7364 169.01C46.278 168.468 43.4647 167.849 40.8514 169.946C38.2123 172.049 38.0833 174.998 37.98 177.598C37.8768 180.012 37.7865 182.289 35.8443 183.832C34.0118 185.27 31.9147 185.051 29.6821 184.651C30.308 185.232 30.9533 185.787 31.6179 186.316C33.3536 186.432 35.1216 186.193 36.7154 184.928C39.1544 182.986 39.2705 180.283 39.3802 177.663C39.4835 175.134 39.5867 172.746 41.7289 171.043C41.7419 171.03 41.7548 171.023 41.7677 171.01C43.8712 169.365 46.0908 169.855 48.446 170.372C50.956 170.927 53.5564 171.501 56.0793 169.526C56.0922 169.513 56.1116 169.501 56.1245 169.488C58.6668 167.462 58.7506 164.719 58.8281 162.074C58.8991 159.635 58.9636 157.331 61.0026 155.712C61.0155 155.705 61.0284 155.692 61.0413 155.686C63.1513 154.034 65.6226 154.434 68.2358 154.853C70.791 155.266 73.4365 155.699 75.6304 153.982C75.6433 153.976 75.6562 153.963 75.6691 153.956C77.9146 152.169 78.0953 149.336 78.263 146.601C78.4243 143.987 78.5792 141.522 80.444 140.038C80.4504 140.032 80.4633 140.026 80.4698 140.019C80.8569 139.716 81.2699 139.503 81.6957 139.354C81.4183 138.961 81.1279 138.574 80.8311 138.187C80.3859 138.38 79.9665 138.625 79.56 138.948Z" fill="#F7B548"/>
<path d="M29.8374 176.154C32.2764 174.211 32.3925 171.508 32.5022 168.888C32.6055 166.359 32.7087 163.971 34.8509 162.268C34.8638 162.255 34.8768 162.248 34.8897 162.236C36.9932 160.59 39.2128 161.081 41.568 161.597C44.078 162.152 46.6784 162.726 49.2013 160.751C49.2142 160.739 49.2336 160.726 49.2465 160.713C51.7888 158.687 51.8726 155.944 51.9501 153.299C52.021 150.86 52.0856 148.556 54.1246 146.937C54.1375 146.93 54.1504 146.917 54.1633 146.911C56.2733 145.259 58.7446 145.659 61.3578 146.078C63.913 146.491 66.5585 146.924 68.7524 145.207C68.7653 145.201 68.7782 145.188 68.7911 145.182C71.0366 143.394 71.2172 140.562 71.385 137.826C71.5463 135.212 71.7012 132.748 73.566 131.263C73.5724 131.257 73.5853 131.251 73.5918 131.244C73.6111 131.225 73.6369 131.212 73.6563 131.199C73.2627 130.915 72.8691 130.638 72.469 130.373C70.3397 132.244 70.159 135.038 69.9913 137.742C69.8364 140.284 69.6815 142.691 67.92 144.091C67.9136 144.098 67.9007 144.104 67.8942 144.11C66.1843 145.453 63.9453 145.091 61.5837 144.704C58.9188 144.272 55.899 143.781 53.3051 145.814C53.2922 145.827 53.2728 145.84 53.2599 145.846C50.7176 147.872 50.6338 150.615 50.5563 153.26C50.4854 155.699 50.4208 158.003 48.3818 159.622C46.3622 161.21 44.1877 160.745 41.8713 160.235C39.4129 159.693 36.606 159.087 33.9863 161.171C31.3472 163.274 31.2182 166.223 31.1149 168.823C31.0117 171.237 30.9214 173.514 28.9792 175.057C28.9663 175.063 28.9598 175.076 28.9469 175.082C27.1467 176.489 25.069 176.276 22.8687 175.883C23.1526 176.405 23.4558 176.921 23.772 177.438C25.8045 177.715 27.9403 177.663 29.8374 176.154Z" fill="#F7B548"/>
<path d="M88 159.5C88 178.554 72.3752 194 53.1007 194C33.8261 194 18 178.535 18 159.481C18 140.427 33.8261 125 53.1007 125C72.3752 125 88 140.446 88 159.5Z" fill="url(#paint3_radial)"/>
</g>
<defs>
<linearGradient id="paint0_linear" x1="-26.0112" y1="-26.1901" x2="79.8518" y2="227.479" gradientUnits="userSpaceOnUse">
<stop stop-color="#F7B548"/>
<stop offset="1" stop-color="#FFD590" stop-opacity="0"/>
</linearGradient>
<radialGradient id="paint1_radial" cx="0" cy="0" r="1" gradientUnits="userSpaceOnUse" gradientTransform="translate(42.8423 151.801) rotate(54.0905) scale(45.2775 45.2449)">
<stop stop-color="#F5B242"/>
<stop offset="0.979" stop-color="#FDD592"/>
</radialGradient>
<radialGradient id="paint2_radial" cx="0" cy="0" r="1" gradientUnits="userSpaceOnUse" gradientTransform="translate(32.0504 150.248) scale(49.7167 49.0064)">
<stop offset="0.2943" stop-color="#FFD590"/>
<stop offset="0.7678" stop-color="#F7B548"/>
</radialGradient>
<radialGradient id="paint3_radial" cx="0" cy="0" r="1" gradientUnits="userSpaceOnUse" gradientTransform="translate(32.0535 150.249) scale(49.6605 49.0922)">
<stop offset="0.2943" stop-color="#FFD590" stop-opacity="0"/>
<stop offset="0.7926" stop-color="#F7B548" stop-opacity="0.3"/>
</radialGradient>
<clipPath id="clip0">
<rect width="287" height="197" rx="2" fill="white"/>
</clipPath>
</defs>
</svg>
