<svg width="287" height="197" viewBox="0 0 287 197" fill="none" xmlns="http://www.w3.org/2000/svg">
<g clip-path="url(#clip0)">
<rect width="287" height="197" rx="2" fill="#E2EFFF"/>
<path d="M51.4995 131C2.14375 131 -39.3909 87.1252 -50.3619 39.1576L-38.3255 -94.4208L51.4995 -113.021L218.101 -145.95L317.5 -1.49966L317.5 278.5C288.999 281.649 161.004 275.248 173.357 212.675C188 138.5 95.1028 131 51.4995 131Z" fill="url(#paint0_linear)"/>
<g opacity="0.75">
<path d="M224.615 24.9619C225.205 25.5429 226.155 25.5353 226.736 24.9448C227.317 24.3544 227.31 23.4047 226.719 22.8236C226.129 22.2425 225.179 22.2502 224.598 22.8406C224.017 23.4311 224.024 24.3808 224.615 24.9619Z" fill="#E2EFFF"/>
<path d="M225.421 125.368C226.011 125.949 226.961 125.942 227.542 125.351C228.123 124.761 228.116 123.811 227.525 123.23C226.935 122.649 225.985 122.656 225.404 123.247C224.823 123.837 224.83 124.787 225.421 125.368Z" fill="#E2EFFF"/>
<path d="M101.352 85.3505C101.352 85.3505 99.6851 84.9167 97.8166 85.3788C98.3969 84.14 97.7882 81.8434 97.7882 81.8434C97.7882 81.8434 99.6325 82.4517 101.324 81.815C100.819 83.5482 101.352 85.3505 101.352 85.3505Z" fill="#E2EFFF"/>
<path d="M221.162 123.281C221.162 123.281 217.955 122.295 214.442 122.981C215.422 120.692 214.034 116.267 214.034 116.267C214.034 116.267 217.602 117.609 220.754 116.567C219.971 119.812 221.162 123.281 221.162 123.281Z" fill="#E2EFFF"/>
<path d="M267.443 74.8251C267.443 74.8251 265.776 74.3913 263.908 74.8535C264.488 73.6146 263.879 71.318 263.879 71.318C263.879 71.318 265.724 71.9263 267.415 71.2897C266.913 73.0257 267.443 74.8251 267.443 74.8251Z" fill="#E2EFFF"/>
<path d="M29.9082 82.3885C29.9082 82.3885 28.2412 81.9548 26.3728 82.4169C26.9531 81.1781 26.3444 78.8815 26.3444 78.8815C26.3444 78.8815 28.1886 79.4898 29.8798 78.8531C29.378 80.5892 29.9082 82.3885 29.9082 82.3885Z" fill="#E2EFFF"/>
<path d="M253.261 69.9882C253.852 70.5693 254.801 70.5617 255.383 69.9712C255.964 69.3807 255.956 68.431 255.366 67.85C254.775 67.2689 253.825 67.2765 253.244 67.867C252.663 68.4575 252.671 69.4072 253.261 69.9882Z" fill="#E2EFFF"/>
<path d="M194.729 177.942C195.32 178.523 196.269 178.516 196.85 177.925C197.431 177.335 197.424 176.385 196.833 175.804C196.243 175.223 195.293 175.231 194.712 175.821C194.131 176.412 194.139 177.361 194.729 177.942Z" fill="#E2EFFF"/>
<path d="M53.9888 87.1455C54.5793 87.7265 55.529 87.7189 56.1101 87.1285C56.6912 86.538 56.6835 85.5883 56.0931 85.0072C55.5026 84.4261 54.5529 84.4338 53.9718 85.0242C53.3907 85.6147 53.3984 86.5644 53.9888 87.1455Z" fill="#E2EFFF"/>
<path d="M70.825 158.43C72.2028 159.785 74.4188 159.768 75.7746 158.39C77.1304 157.012 77.1127 154.796 75.7349 153.44C74.3571 152.084 72.1411 152.102 70.7853 153.48C69.4295 154.858 69.4473 157.074 70.825 158.43Z" fill="#E2EFFF"/>
<path d="M65.7677 145.035C66.3581 145.616 67.3079 145.609 67.8889 145.018C68.47 144.428 68.4623 143.478 67.8719 142.897C67.2814 142.316 66.3317 142.323 65.7506 142.914C65.1696 143.504 65.1772 144.454 65.7677 145.035Z" fill="#E2EFFF"/>
<path d="M228.295 131.002C228.491 131.196 228.808 131.193 229.002 130.996C229.195 130.799 229.193 130.483 228.996 130.289C228.799 130.095 228.483 130.098 228.289 130.295C228.095 130.492 228.098 130.808 228.295 131.002Z" fill="#E2EFFF"/>
<path d="M249.484 128.004C250.075 128.585 251.025 128.577 251.606 127.987C252.187 127.396 252.179 126.447 251.589 125.866C250.998 125.285 250.048 125.292 249.467 125.883C248.886 126.473 248.894 127.423 249.484 128.004Z" fill="#E2EFFF"/>
<path d="M216.303 134.634C216.893 135.215 217.686 135.367 218.073 134.973C218.46 134.58 218.296 133.789 217.705 133.208C217.115 132.627 216.322 132.475 215.935 132.869C215.547 133.263 215.712 134.053 216.303 134.634Z" fill="#E2EFFF"/>
<path d="M98.0507 158.565C98.4443 158.953 99.0775 158.948 99.4648 158.554C99.8522 158.16 99.8471 157.527 99.4535 157.14C99.0598 156.753 98.4267 156.758 98.0393 157.151C97.6519 157.545 97.657 158.178 98.0507 158.565Z" fill="#E2EFFF"/>
<path d="M153.924 198.659C154.712 199.434 155.821 199.583 156.402 198.993C156.983 198.402 156.816 197.296 156.029 196.521C155.241 195.746 154.132 195.597 153.551 196.187C152.97 196.778 153.137 197.885 153.924 198.659Z" fill="#E2EFFF"/>
<path d="M32.3812 126.211C32.9717 126.792 34.0784 126.625 34.8532 125.837C35.6279 125.05 35.7773 123.941 35.1868 123.36C34.5963 122.779 33.4896 122.946 32.7149 123.733C31.9401 124.52 31.7907 125.63 32.3812 126.211Z" fill="#E2EFFF"/>
<path d="M234.961 36.5469C235.355 36.9342 235.988 36.9291 236.375 36.5355C236.763 36.1418 236.758 35.5087 236.364 35.1213C235.97 34.734 235.337 34.739 234.95 35.1327C234.563 35.5263 234.568 36.1595 234.961 36.5469Z" fill="#E2EFFF"/>
<path d="M19.2225 72.5743C19.8129 73.1554 20.6056 73.3073 20.993 72.9137C21.3804 72.52 21.2158 71.7299 20.6253 71.1488C20.0348 70.5677 19.2421 70.4158 18.8547 70.8094C18.4674 71.2031 18.632 71.9932 19.2225 72.5743Z" fill="#E2EFFF"/>
<path d="M108.346 98.6956C109.186 99.424 109.877 99.9007 110.894 100.638C111.414 101.014 112.032 100.386 111.644 99.8755C110.908 98.9112 110.419 98.301 109.624 97.4751C109.422 97.2638 109.403 96.9442 109.584 96.7346C110.266 95.9304 110.98 94.9969 111.661 94.0314C112.016 93.5267 111.362 92.8828 110.866 93.2498C109.934 93.9433 109.063 94.6914 108.269 95.4531C108.066 95.6466 107.74 95.652 107.519 95.4595C106.692 94.7249 105.901 94.0825 105.199 93.5456C104.682 93.1469 104.042 93.784 104.443 94.3077C105.074 95.1252 105.763 96.0004 106.369 96.7132C106.549 96.9274 106.555 97.2342 106.377 97.4344C105.66 98.2476 105.031 99.0303 104.513 99.7259C104.135 100.227 104.799 100.893 105.307 100.514C106.1 99.9166 106.948 99.2631 107.637 98.6867C107.837 98.5089 108.138 98.5159 108.346 98.6956Z" fill="#E2EFFF"/>
</g>
<g opacity="0.75">
<path d="M103.108 33.4461C103.108 33.4461 104.596 34.3136 106.52 34.3727C105.627 35.4091 105.593 37.7847 105.593 37.7847C105.593 37.7847 103.981 36.7014 102.181 36.8581C103.135 35.3254 103.108 33.4461 103.108 33.4461Z" fill="#E2EFFF"/>
<path d="M171.102 55.576C171.102 55.576 172.591 56.4435 174.514 56.5026C173.621 57.5389 173.588 59.9146 173.588 59.9146C173.588 59.9146 171.976 58.8312 170.176 58.9879C171.127 57.4517 171.102 55.576 171.102 55.576Z" fill="#E2EFFF"/>
<path d="M149.199 44.4973C148.787 43.7784 147.871 43.5295 147.152 43.9413C146.433 44.3531 146.184 45.2696 146.596 45.9885C147.007 46.7073 147.924 46.9562 148.643 46.5444C149.362 46.1327 149.611 45.2161 149.199 44.4973Z" fill="#E2EFFF"/>
<path d="M180.546 12.7111C180.134 11.9923 179.023 11.8547 178.065 12.4037C177.106 12.9528 176.663 13.9806 177.075 14.6994C177.486 15.4182 178.597 15.5559 179.556 15.0069C180.514 14.4578 180.957 13.43 180.546 12.7111Z" fill="#E2EFFF"/>
<path d="M178.744 67.9084C178.332 67.1896 177.61 66.8294 177.13 67.1039C176.651 67.3784 176.597 68.1837 177.008 68.9025C177.42 69.6214 178.142 69.9816 178.622 69.707C179.101 69.4325 179.156 68.6272 178.744 67.9084Z" fill="#E2EFFF"/>
<path d="M99.9744 18.7089C99.3619 17.7807 98.8255 17.1354 98.0445 16.1512C97.6453 15.6482 96.8809 16.0861 97.1166 16.6827C97.5653 17.8099 97.8714 18.5293 98.4146 19.5393C98.5522 19.7972 98.4839 20.1101 98.2534 20.2632C97.3793 20.8534 96.4403 21.5597 95.524 22.3056C95.0454 22.6956 95.5016 23.4921 96.0779 23.2725C97.1629 22.8563 98.2031 22.3709 99.1736 21.8519C99.4215 21.7203 99.7366 21.803 99.8971 22.0479C100.496 22.9786 101.084 23.8104 101.614 24.5168C102.005 25.0403 102.793 24.5995 102.548 23.9871C102.162 23.0297 101.734 22.001 101.343 21.1511C101.228 20.8963 101.305 20.5994 101.53 20.4546C102.44 19.865 103.257 19.2811 103.943 18.7511C104.443 18.3704 103.983 17.5497 103.391 17.778C102.467 18.1392 101.474 18.5396 100.655 18.9087C100.414 19.0257 100.126 18.9379 99.9744 18.7089Z" fill="#E2EFFF"/>
</g>
<path d="M253.999 50.0792C263.786 50.0792 271.721 42.1447 271.721 32.357C271.721 22.5693 263.786 14.6348 253.999 14.6348C244.211 14.6348 236.276 22.5693 236.276 32.357C236.276 42.1447 244.211 50.0792 253.999 50.0792Z" fill="url(#paint1_radial)" fill-opacity="0.5"/>
<path d="M268.035 51.0026C259.569 57.7425 247.334 58.3115 238.154 51.6348C232.28 47.3608 228.847 40.9813 228.133 34.292" stroke="#7BDDEF" stroke-width="2" stroke-linecap="round" stroke-linejoin="round" stroke-dasharray="1 1"/>
<path d="M228 31.1179C228 31.0104 228.006 30.9092 228.006 30.8018" stroke="#7BDDEF" stroke-width="2" stroke-linecap="round" stroke-linejoin="round"/>
<path d="M237.484 12.2195C245.944 5.61242 258.077 5.09396 267.187 11.72C271.563 14.9003 274.585 19.2502 276.134 24.0238" stroke="#7BDDEF" stroke-width="2" stroke-linecap="round" stroke-linejoin="round" stroke-dasharray="1.04 1.04"/>
<path d="M276.943 27.2168C276.962 27.318 276.981 27.4254 277 27.5266" stroke="#7BDDEF" stroke-width="2" stroke-linecap="round" stroke-linejoin="round"/>
<path d="M235.081 17.1639C235.081 18.4696 234.022 19.5281 232.717 19.5281C231.411 19.5281 230.353 18.4696 230.353 17.1639C230.353 15.8583 231.411 14.7998 232.717 14.7998C234.022 14.7998 235.081 15.8583 235.081 17.1639Z" fill="#7BDDEF" stroke="#7BDDEF"/>
<path d="M274.995 46.1972C274.995 47.5028 273.937 48.5613 272.631 48.5613C271.326 48.5613 270.267 47.5028 270.267 46.1972C270.267 44.8915 271.326 43.833 272.631 43.833C273.937 43.833 274.995 44.8915 274.995 46.1972Z" fill="#7BDDEF" stroke="#7BDDEF"/>
<path d="M111.805 185.652C111.969 185.67 112.133 185.688 112.297 185.705C111.933 184.675 111.559 183.647 111.184 182.608C110.866 182.571 110.549 182.544 110.231 182.508C80.6523 179.125 50.6078 168.852 26.0217 158.412L25.085 163.992C49.8532 174.508 82.0427 182.255 111.805 185.652Z" fill="url(#paint2_linear)"/>
<path d="M19.3782 160.893C19.698 163.212 21.8378 164.834 24.1575 164.514C26.4773 164.194 28.0985 162.054 27.7788 159.734C27.459 157.415 25.3192 155.793 22.9994 156.113C20.6797 156.433 19.0584 158.573 19.3782 160.893Z" fill="#72ACF1"/>
</g>
<defs>
<linearGradient id="paint0_linear" x1="304" y1="-21.4996" x2="63.4999" y2="195.5" gradientUnits="userSpaceOnUse">
<stop offset="0.0346071" stop-color="#01D2E7"/>
<stop offset="1" stop-color="#3E8FEE" stop-opacity="0"/>
</linearGradient>
<radialGradient id="paint1_radial" cx="0" cy="0" r="1" gradientUnits="userSpaceOnUse" gradientTransform="translate(253.997 32.3593) scale(17.721)">
<stop offset="0.223958" stop-color="#006198"/>
<stop offset="0.890625" stop-color="#28C2D1" stop-opacity="0"/>
</radialGradient>
<linearGradient id="paint2_linear" x1="88.9033" y1="202.414" x2="46.8881" y2="143.54" gradientUnits="userSpaceOnUse">
<stop offset="0.0119" stop-color="#E2EFFF"/>
<stop offset="0.993" stop-color="#A7CBF6"/>
</linearGradient>
<clipPath id="clip0">
<rect width="287" height="197" rx="2" fill="white"/>
</clipPath>
</defs>
</svg>
