<svg width="287" height="197" viewBox="0 0 287 197" fill="none" xmlns="http://www.w3.org/2000/svg">
<g clip-path="url(#clip0)">
<rect width="287" height="197" rx="2" fill="#C3F2F4"/>
<path d="M68.757 94C-16.743 73.5 -7.74302 9 -5.74302 -36.5L266.757 -56L397.757 -46.5C392.09 67.3333 366.057 301.2 307.257 326C233.757 357 173.757 314 160.757 281C148.734 250.48 169.257 195 166.257 166C163.257 137 154.257 114.5 68.757 94Z" fill="url(#paint0_linear)"/>
<path d="M48.8069 140.448C48.5564 139.658 47.7131 139.221 46.9235 139.472C46.1339 139.723 45.6969 140.566 45.9474 141.355C46.198 142.145 47.0412 142.582 47.8309 142.331C48.6205 142.081 49.0575 141.238 48.8069 140.448Z" fill="#C3F2F4" fill-opacity="0.5"/>
<path d="M95.0076 51.2996C94.7571 50.51 93.9138 50.073 93.1242 50.3235C92.3346 50.5741 91.8976 51.4174 92.1481 52.207C92.3987 52.9966 93.2419 53.4336 94.0316 53.183C94.8212 52.9325 95.2582 52.0893 95.0076 51.2996Z" fill="#C3F2F4" fill-opacity="0.5"/>
<path d="M186.003 144.65C186.003 144.65 187.274 145.812 189.142 146.277C188.05 147.101 187.515 149.416 187.515 149.416C187.515 149.416 186.169 148.016 184.376 147.789C185.632 146.493 186.003 144.65 186.003 144.65Z" fill="#C3F2F4" fill-opacity="0.5"/>
<path d="M97.7982 55.1347C97.7982 55.1347 100.173 57.5053 103.6 58.5394C101.663 60.1058 100.823 64.6663 100.823 64.6663C100.823 64.6663 98.2949 61.8126 95.0212 61.2615C97.2299 58.7581 97.7982 55.1347 97.7982 55.1347Z" fill="#C3F2F4" fill-opacity="0.5"/>
<path d="M34.2388 76.3521C34.2388 76.3521 35.51 77.5145 37.3779 77.9789C36.2859 78.803 35.7511 81.1179 35.7511 81.1179C35.7511 81.1179 34.4047 79.7184 32.612 79.4911C33.8669 78.1906 34.2388 76.3521 34.2388 76.3521Z" fill="#C3F2F4" fill-opacity="0.5"/>
<path d="M247.785 180.65C247.785 180.65 249.056 181.812 250.924 182.277C249.832 183.101 249.297 185.416 249.297 185.416C249.297 185.416 247.951 184.016 246.158 183.789C247.413 182.488 247.785 180.65 247.785 180.65Z" fill="#C3F2F4" fill-opacity="0.5"/>
<path d="M44.5174 87.2537C44.2668 86.4641 43.4236 86.0271 42.634 86.2776C41.8443 86.5282 41.4073 87.3714 41.6579 88.1611C41.9085 88.9507 42.7517 89.3877 43.5413 89.1371C44.3309 88.8866 44.7679 88.0433 44.5174 87.2537Z" fill="#C3F2F4" fill-opacity="0.5"/>
<path d="M146.708 19.157C146.457 18.3674 145.614 17.9304 144.824 18.181C144.035 18.4315 143.598 19.2748 143.848 20.0644C144.099 20.854 144.942 21.291 145.732 21.0405C146.521 20.7899 146.958 19.9467 146.708 19.157Z" fill="#C3F2F4" fill-opacity="0.5"/>
<path d="M228.717 165.193C228.466 164.404 227.623 163.967 226.833 164.217C226.044 164.468 225.607 165.311 225.857 166.101C226.108 166.89 226.951 167.327 227.741 167.077C228.53 166.826 228.967 165.983 228.717 165.193Z" fill="#C3F2F4" fill-opacity="0.5"/>
<path d="M247.138 94.3007C246.554 92.4582 244.586 91.4385 242.744 92.0232C240.901 92.6078 239.882 94.5754 240.466 96.4178C241.051 98.2603 243.019 99.28 244.861 98.6953C246.703 98.1107 247.723 96.1431 247.138 94.3007Z" fill="#C3F2F4" fill-opacity="0.5"/>
<path d="M245.351 108.507C245.101 107.717 244.257 107.28 243.468 107.531C242.678 107.781 242.241 108.624 242.492 109.414C242.742 110.204 243.585 110.641 244.375 110.39C245.165 110.14 245.602 109.296 245.351 108.507Z" fill="#C3F2F4" fill-opacity="0.5"/>
<path d="M95.0991 44.9758C95.0155 44.7126 94.7345 44.567 94.4713 44.6505C94.208 44.734 94.0624 45.0151 94.1459 45.2783C94.2294 45.5415 94.5105 45.6872 94.7737 45.6037C95.0369 45.5201 95.1826 45.2391 95.0991 44.9758Z" fill="#C3F2F4" fill-opacity="0.5"/>
<path d="M74.9634 37.7264C74.7129 36.9367 73.8696 36.4997 73.08 36.7503C72.2904 37.0009 71.8534 37.8441 72.1039 38.6337C72.3545 39.4233 73.1977 39.8604 73.9874 39.6098C74.777 39.3592 75.214 38.516 74.9634 37.7264Z" fill="#C3F2F4" fill-opacity="0.5"/>
<path d="M107.399 47.3677C107.148 46.5781 106.518 46.0734 105.992 46.2404C105.465 46.4074 105.242 47.183 105.492 47.9726C105.743 48.7622 106.373 49.2669 106.899 49.0999C107.426 48.9329 107.649 48.1573 107.399 47.3677Z" fill="#C3F2F4" fill-opacity="0.5"/>
<path d="M223.13 81.4605C222.963 80.9341 222.401 80.6427 221.875 80.8098C221.348 80.9768 221.057 81.539 221.224 82.0654C221.391 82.5918 221.953 82.8831 222.48 82.7161C223.006 82.5491 223.297 81.9869 223.13 81.4605Z" fill="#C3F2F4" fill-opacity="0.5"/>
<path d="M192.464 19.906C192.13 18.8532 191.219 18.2028 190.429 18.4534C189.64 18.7039 189.27 19.7606 189.605 20.8134C189.939 21.8662 190.85 22.5166 191.639 22.266C192.429 22.0155 192.798 20.9589 192.464 19.906Z" fill="#C3F2F4" fill-opacity="0.5"/>
<path d="M266.074 140.749C265.823 139.959 264.767 139.59 263.714 139.924C262.661 140.258 262.011 141.169 262.261 141.959C262.512 142.749 263.568 143.118 264.621 142.784C265.674 142.45 266.324 141.539 266.074 140.749Z" fill="#C3F2F4" fill-opacity="0.5"/>
<path d="M196.272 3.43019C196.021 2.64056 195.392 2.13586 194.865 2.3029C194.339 2.46994 194.115 3.24547 194.366 4.0351C194.616 4.82473 195.246 5.32943 195.773 5.16239C196.299 4.99535 196.523 4.21982 196.272 3.43019Z" fill="#C3F2F4" fill-opacity="0.5"/>
<path d="M45.0721 125.372C44.9051 124.845 44.3429 124.554 43.8165 124.721C43.2901 124.888 42.9988 125.45 43.1658 125.977C43.3328 126.503 43.895 126.794 44.4214 126.627C44.9478 126.46 45.2392 125.898 45.0721 125.372Z" fill="#C3F2F4" fill-opacity="0.5"/>
<path d="M9.20886 68.5572C9.04182 68.0308 8.47966 67.7394 7.95325 67.9065C7.42683 68.0735 7.13549 68.6357 7.30253 69.1621C7.46957 69.6885 8.03173 69.9798 8.55815 69.8128C9.08457 69.6457 9.3759 69.0836 9.20886 68.5572Z" fill="#C3F2F4" fill-opacity="0.5"/>
<path d="M252.647 194.319C252.396 193.529 251.767 193.025 251.24 193.192C250.714 193.359 250.49 194.134 250.741 194.924C250.991 195.713 251.621 196.218 252.148 196.051C252.674 195.884 252.898 195.108 252.647 194.319Z" fill="#C3F2F4" fill-opacity="0.5"/>
<path d="M186.055 129.583C185.653 128.546 185.265 127.802 184.709 126.675C184.425 126.099 183.586 126.365 183.69 126.998C183.89 128.195 184.037 128.963 184.355 130.065C184.435 130.346 184.302 130.637 184.044 130.738C183.065 131.13 181.998 131.622 180.945 132.158C180.395 132.438 180.672 133.313 181.282 133.22C182.43 133.042 183.55 132.788 184.608 132.485C184.878 132.409 185.169 132.557 185.274 132.83C185.662 133.866 186.061 134.803 186.431 135.606C186.702 136.2 187.565 135.936 187.455 135.286C187.28 134.268 187.079 133.172 186.877 132.259C186.818 131.985 186.956 131.712 187.207 131.618C188.221 131.234 189.143 130.836 189.926 130.463C190.494 130.196 190.218 129.297 189.591 129.395C188.611 129.552 187.556 129.734 186.678 129.922C186.417 129.985 186.155 129.838 186.055 129.583Z" fill="#C3F2F4" fill-opacity="0.5"/>
<path d="M241.633 61.2119C254.369 62.8588 266.029 53.8691 267.676 41.1328C269.323 28.3965 260.334 16.7365 247.597 15.0895C234.861 13.4426 223.201 22.4323 221.554 35.1686C219.907 47.9049 228.897 59.5649 241.633 61.2119Z" fill="url(#paint1_radial)"/>
<path d="M267.151 45.7068L266.208 46.6564C275.821 54.5278 280.146 59.9285 278.571 62.3814C276.146 66.1567 260.742 58.545 240.463 45.5269C220.178 32.5128 205.897 21.2926 208.322 17.5172C209.909 15.0394 216.377 16.3178 227.724 21.9084L228.511 20.8208C214.847 13.9214 204.431 10.9487 202.495 13.97C199.693 18.3323 215.585 33.5198 237.986 47.8938C260.387 62.2679 280.816 70.3902 283.618 66.0279C285.524 63.0605 278.746 55.0556 267.151 45.7068Z" fill="#8CC7E6"/>
</g>
<defs>
<linearGradient id="paint0_linear" x1="422.757" y1="-73" x2="91.7569" y2="203.5" gradientUnits="userSpaceOnUse">
<stop offset="0.224669" stop-color="#512BD4"/>
<stop offset="1" stop-color="#28C2D1" stop-opacity="0"/>
</linearGradient>
<radialGradient id="paint1_radial" cx="0" cy="0" r="1" gradientUnits="userSpaceOnUse" gradientTransform="translate(261 21.9999) rotate(147.16) scale(65.4618)">
<stop offset="0.00703537" stop-color="#6981DC"/>
<stop offset="1" stop-color="#C3F2F4"/>
</radialGradient>
<clipPath id="clip0">
<rect width="287" height="197" rx="2" fill="white"/>
</clipPath>
</defs>
</svg>
