<svg width="287" height="197" viewBox="0 0 287 197" fill="none" xmlns="http://www.w3.org/2000/svg">
<g clip-path="url(#clip0)">
<rect width="287" height="197" rx="2" fill="#A7CBF6"/>
<path d="M136.742 63.1716C150.361 21.7498 223.401 -19.2045 272 -11.4998L391.459 49.473L375.227 139.756L343.665 306.622L139.497 293.956L-74.0636 200.49C-66.3584 172.87 -35.2421 120.383 27.5815 131.392C106.111 145.153 123.122 104.593 136.742 63.1716Z" fill="url(#paint0_linear)"/>
<path d="M91.1021 43.5984C91.6562 42.9826 91.6061 42.0342 90.9903 41.4801C90.3744 40.926 89.426 40.9761 88.8719 41.5919C88.3178 42.2078 88.3679 43.1562 88.9838 43.7103C89.5996 44.2644 90.548 44.2143 91.1021 43.5984Z" fill="#A7CBF6"/>
<path d="M191.372 38.3045C191.926 37.6887 191.876 36.7402 191.26 36.1861C190.644 35.6321 189.696 35.6821 189.141 36.298C188.587 36.9138 188.637 37.8623 189.253 38.4164C189.869 38.9704 190.818 38.9204 191.372 38.3045Z" fill="#A7CBF6"/>
<path d="M156.941 164.038C156.941 164.038 156.582 165.723 157.127 167.569C155.863 167.044 153.596 167.755 153.596 167.755C153.596 167.755 154.122 165.886 153.41 164.224C155.164 164.651 156.941 164.038 156.941 164.038Z" fill="#A7CBF6"/>
<path d="M189.477 42.6529C189.477 42.6529 188.635 45.9008 189.478 49.3797C187.147 48.5028 182.789 50.0869 182.789 50.0869C182.789 50.0869 183.97 46.4622 182.788 43.3601C186.065 43.9974 189.477 42.6529 189.477 42.6529Z" fill="#A7CBF6"/>
<path d="M139 -1.41601C139 -1.41601 138.641 0.268677 139.186 2.1146C137.923 1.59024 135.656 2.30101 135.656 2.30101C135.656 2.30101 136.181 0.43141 135.469 -1.22961C137.226 -0.805917 139 -1.41601 139 -1.41601Z" fill="#A7CBF6"/>
<path d="M134.803 12.9676C135.357 12.3517 135.307 11.4033 134.691 10.8492C134.075 10.2951 133.127 10.3452 132.573 10.9611C132.019 11.5769 132.069 12.5253 132.684 13.0794C133.3 13.6335 134.249 13.5834 134.803 12.9676Z" fill="#A7CBF6"/>
<path d="M245.265 66.6151C245.819 65.9992 245.769 65.0508 245.153 64.4967C244.538 63.9426 243.589 63.9927 243.035 64.6085C242.481 65.2244 242.531 66.1728 243.147 66.7269C243.763 67.281 244.711 67.2309 245.265 66.6151Z" fill="#A7CBF6"/>
<path d="M231.312 191.267C232.605 189.83 232.488 187.617 231.051 186.325C229.614 185.032 227.401 185.149 226.108 186.586C224.815 188.023 224.932 190.236 226.369 191.528C227.806 192.821 230.019 192.704 231.312 191.267Z" fill="#A7CBF6"/>
<path d="M218.156 196.919C218.71 196.303 218.66 195.354 218.044 194.8C217.429 194.246 216.48 194.296 215.926 194.912C215.372 195.528 215.422 196.477 216.038 197.031C216.654 197.585 217.602 197.535 218.156 196.919Z" fill="#A7CBF6"/>
<path d="M196.871 35.1819C197.056 34.9766 197.039 34.6605 196.834 34.4758C196.629 34.2911 196.313 34.3078 196.128 34.5131C195.943 34.7183 195.96 35.0345 196.165 35.2192C196.37 35.4039 196.687 35.3872 196.871 35.1819Z" fill="#A7CBF6"/>
<path d="M192.928 14.1473C193.482 13.5314 193.432 12.583 192.816 12.0289C192.201 11.4748 191.252 11.5249 190.698 12.1407C190.144 12.7566 190.194 13.705 190.81 14.2591C191.426 14.8132 192.374 14.7631 192.928 14.1473Z" fill="#A7CBF6"/>
<path d="M201.036 46.9989C201.59 46.3831 201.706 45.5844 201.296 45.215C200.885 44.8456 200.103 45.0454 199.549 45.6613C198.995 46.2771 198.879 47.0758 199.289 47.4452C199.7 47.8146 200.482 47.6148 201.036 46.9989Z" fill="#A7CBF6"/>
<path d="M230.229 164.063C230.599 163.652 230.565 163.02 230.155 162.651C229.744 162.281 229.112 162.315 228.743 162.725C228.373 163.136 228.407 163.768 228.817 164.138C229.228 164.507 229.86 164.474 230.229 164.063Z" fill="#A7CBF6"/>
<path d="M267.786 106.453C268.524 105.632 268.624 104.517 268.008 103.963C267.392 103.409 266.294 103.626 265.555 104.447C264.817 105.268 264.717 106.383 265.333 106.937C265.949 107.491 267.047 107.274 267.786 106.453Z" fill="#A7CBF6"/>
<path d="M283.922 101.394C284.476 100.779 284.593 99.9799 284.182 99.6105C283.771 99.2411 282.989 99.4409 282.435 100.057C281.881 100.673 281.765 101.471 282.176 101.841C282.586 102.21 283.368 102.01 283.922 101.394Z" fill="#A7CBF6"/>
<path d="M102.213 32.7447C102.582 32.3341 102.549 31.7018 102.138 31.3324C101.728 30.963 101.095 30.9964 100.726 31.407C100.357 31.8176 100.39 32.4498 100.801 32.8192C101.211 33.1886 101.843 33.1552 102.213 32.7447Z" fill="#A7CBF6"/>
<path d="M169.96 156.455C170.65 155.583 171.095 154.872 171.786 153.822C172.139 153.286 171.484 152.697 170.991 153.107C170.061 153.886 169.473 154.401 168.683 155.233C168.481 155.444 168.163 155.477 167.945 155.306C167.111 154.66 166.147 153.989 165.152 153.352C164.632 153.019 164.018 153.702 164.407 154.18C165.141 155.081 165.928 155.917 166.724 156.677C166.926 156.871 166.946 157.196 166.764 157.425C166.067 158.285 165.461 159.103 164.956 159.828C164.58 160.363 165.246 160.974 165.751 160.55C166.539 159.883 167.383 159.156 168.068 158.519C168.274 158.329 168.58 158.31 168.788 158.478C169.632 159.158 170.442 159.752 171.16 160.238C171.678 160.593 172.314 159.9 171.912 159.409C171.28 158.644 170.589 157.826 169.983 157.164C169.796 156.971 169.79 156.67 169.96 156.455Z" fill="#A7CBF6"/>
<path d="M85.9517 194.279C86.0776 194.385 86.2034 194.492 86.3292 194.599C86.605 193.542 86.8719 192.48 87.1431 191.41C86.9005 191.201 86.6534 191.001 86.4107 190.792C63.8113 171.411 44.6892 146.063 30.1808 123.635L26.2772 127.732C40.8938 150.324 63.2086 174.782 85.9517 194.279Z" fill="url(#paint1_linear)"/>
<path d="M305.21 -15.8093C305.362 -15.873 305.515 -15.9366 305.667 -16.0003C305.611 -14.9093 305.545 -13.8169 305.48 -12.7146C305.186 -12.5887 304.89 -12.4728 304.595 -12.347C277.199 -0.69332 251.316 17.6992 230.714 34.6997L228.229 29.6162C248.984 12.4913 277.642 -4.08895 305.21 -15.8093Z" fill="url(#paint2_linear)"/>
<path d="M23.2888 121.966C22.2533 124.067 23.1165 126.609 25.2168 127.644C27.3171 128.68 29.8592 127.816 30.8946 125.716C31.9301 123.616 31.0669 121.074 28.9666 120.038C26.8663 119.003 24.3242 119.866 23.2888 121.966Z" fill="#D1E6FF"/>
<path d="M223.639 34.211C223.286 31.8961 224.877 29.7333 227.192 29.3802C229.507 29.0272 231.669 30.6176 232.022 32.9325C232.375 35.2474 230.785 37.4102 228.47 37.7633C226.155 38.1163 223.992 36.5259 223.639 34.211Z" fill="#D1E6FF"/>
</g>
<defs>
<linearGradient id="paint0_linear" x1="287.607" y1="217.059" x2="63.9998" y2="64.5002" gradientUnits="userSpaceOnUse">
<stop stop-color="#3E8EED"/>
<stop offset="1" stop-color="#72ACF1" stop-opacity="0"/>
</linearGradient>
<linearGradient id="paint1_linear" x1="57.5903" y1="195.322" x2="55.7973" y2="123.016" gradientUnits="userSpaceOnUse">
<stop offset="0.0119" stop-color="#91BEF4"/>
<stop offset="0.993" stop-color="#BAD5F5"/>
</linearGradient>
<linearGradient id="paint2_linear" x1="274" y1="-0.500245" x2="254.948" y2="43.0242" gradientUnits="userSpaceOnUse">
<stop offset="0.0119" stop-color="#83B6F3"/>
<stop offset="0.993" stop-color="#BAD5F5"/>
</linearGradient>
<clipPath id="clip0">
<rect width="287" height="197" rx="2" fill="white"/>
</clipPath>
</defs>
</svg>
