<svg width="287" height="197" viewBox="0 0 287 197" fill="none" xmlns="http://www.w3.org/2000/svg">
<g clip-path="url(#clip0)">
<rect width="287" height="197" rx="2" fill="#FFE5B9"/>
<path d="M121.921 10.8016C133.364 -37.2276 -50.9584 -14.097 -82.0114 29.9294L8.47496 291.285C60.746 274.814 254.26 249.871 298.889 211.388C402.44 122.096 348.174 -0.261885 226.362 54.429C171 79.2852 90.3214 143.431 121.921 10.8016Z" fill="url(#paint0_linear)"/>
<path d="M48.8072 57.9055C48.5566 58.6951 47.7134 59.1321 46.9238 58.8815C46.1341 58.631 45.6971 57.7877 45.9477 56.9981C46.1982 56.2085 47.0415 55.7715 47.8311 56.022C48.6207 56.2726 49.0577 57.1158 48.8072 57.9055Z" fill="#FFE5B9"/>
<path d="M95.0079 147.054C94.7573 147.844 93.9141 148.281 93.1245 148.03C92.3348 147.779 91.8978 146.936 92.1484 146.147C92.3989 145.357 93.2422 144.92 94.0318 145.17C94.8214 145.421 95.2584 146.264 95.0079 147.054Z" fill="#FFE5B9"/>
<path d="M186.003 53.7036C186.003 53.7036 187.275 52.5412 189.143 52.0768C188.051 51.2526 187.516 48.9378 187.516 48.9378C187.516 48.9378 186.169 50.3372 184.377 50.5645C185.633 51.861 186.003 53.7036 186.003 53.7036Z" fill="#FFE5B9"/>
<path d="M97.7984 143.219C97.7984 143.219 100.173 140.848 103.6 139.814C101.663 138.248 100.823 133.687 100.823 133.687C100.823 133.687 98.2951 136.541 95.0214 137.092C97.2302 139.595 97.7984 143.219 97.7984 143.219Z" fill="#FFE5B9"/>
<path d="M34.2393 122.001C34.2393 122.001 35.5104 120.839 37.3783 120.375C36.2864 119.55 35.7516 117.236 35.7516 117.236C35.7516 117.236 34.4052 118.635 32.6125 118.862C33.8673 120.163 34.2393 122.001 34.2393 122.001Z" fill="#FFE5B9"/>
<path d="M247.785 17.7036C247.785 17.7036 249.056 16.5412 250.924 16.0768C249.832 15.2526 249.297 12.9378 249.297 12.9378C249.297 12.9378 247.951 14.3373 246.158 14.5646C247.413 15.865 247.785 17.7036 247.785 17.7036Z" fill="#FFE5B9"/>
<path d="M44.5176 111.1C44.2671 111.889 43.4238 112.326 42.6342 112.076C41.8446 111.825 41.4076 110.982 41.6581 110.192C41.9087 109.403 42.7519 108.966 43.5416 109.216C44.3312 109.467 44.7682 110.31 44.5176 111.1Z" fill="#FFE5B9"/>
<path d="M146.708 179.196C146.458 179.986 145.614 180.423 144.825 180.173C144.035 179.922 143.598 179.079 143.849 178.289C144.099 177.499 144.942 177.062 145.732 177.313C146.522 177.564 146.959 178.407 146.708 179.196Z" fill="#FFE5B9"/>
<path d="M228.717 33.1603C228.467 33.95 227.624 34.387 226.834 34.1364C226.044 33.8859 225.607 33.0426 225.858 32.253C226.108 31.4634 226.952 31.0264 227.741 31.2769C228.531 31.5275 228.968 32.3707 228.717 33.1603Z" fill="#FFE5B9"/>
<path d="M247.139 104.053C246.554 105.895 244.587 106.915 242.744 106.33C240.902 105.746 239.882 103.778 240.467 101.936C241.051 100.093 243.019 99.0736 244.861 99.6582C246.704 100.243 247.724 102.21 247.139 104.053Z" fill="#FFE5B9"/>
<path d="M245.352 89.8469C245.101 90.6365 244.258 91.0735 243.468 90.8229C242.679 90.5724 242.242 89.7291 242.492 88.9395C242.743 88.1499 243.586 87.7129 244.376 87.9634C245.165 88.214 245.602 89.0572 245.352 89.8469Z" fill="#FFE5B9"/>
<path d="M95.0993 153.378C95.0158 153.641 94.7347 153.787 94.4715 153.703C94.2083 153.62 94.0626 153.338 94.1461 153.075C94.2297 152.812 94.5107 152.666 94.7739 152.75C95.0372 152.833 95.1828 153.114 95.0993 153.378Z" fill="#FFE5B9"/>
<path d="M74.9639 160.627C74.7134 161.417 73.8701 161.854 73.0805 161.603C72.2909 161.353 71.8539 160.509 72.1044 159.72C72.355 158.93 73.1982 158.493 73.9879 158.744C74.7775 158.994 75.2145 159.838 74.9639 160.627Z" fill="#FFE5B9"/>
<path d="M107.399 150.986C107.148 151.775 106.519 152.28 105.992 152.113C105.466 151.946 105.242 151.171 105.493 150.381C105.743 149.591 106.373 149.087 106.899 149.254C107.426 149.421 107.65 150.196 107.399 150.986Z" fill="#FFE5B9"/>
<path d="M223.131 116.893C222.964 117.419 222.402 117.711 221.875 117.544C221.349 117.377 221.057 116.815 221.224 116.288C221.391 115.762 221.954 115.47 222.48 115.637C223.006 115.804 223.298 116.367 223.131 116.893Z" fill="#FFE5B9"/>
<path d="M192.465 178.447C192.13 179.5 191.22 180.151 190.43 179.9C189.64 179.65 189.271 178.593 189.605 177.54C189.939 176.487 190.85 175.837 191.64 176.087C192.429 176.338 192.799 177.395 192.465 178.447Z" fill="#FFE5B9"/>
<path d="M266.074 57.6044C265.824 58.394 264.767 58.7633 263.714 58.4292C262.661 58.0952 262.011 57.1842 262.262 56.3946C262.512 55.605 263.569 55.2357 264.622 55.5697C265.674 55.9038 266.325 56.8148 266.074 57.6044Z" fill="#FFE5B9"/>
<path d="M196.272 194.923C196.022 195.713 195.392 196.218 194.866 196.051C194.339 195.884 194.116 195.108 194.366 194.318C194.617 193.529 195.247 193.024 195.773 193.191C196.299 193.358 196.523 194.134 196.272 194.923Z" fill="#FFE5B9"/>
<path d="M45.0726 72.9819C44.9056 73.5083 44.3434 73.7996 43.817 73.6326C43.2906 73.4656 42.9993 72.9034 43.1663 72.377C43.3333 71.8506 43.8955 71.5592 44.4219 71.7263C44.9483 71.8933 45.2397 72.4555 45.0726 72.9819Z" fill="#FFE5B9"/>
<path d="M9.20935 129.796C9.04231 130.323 8.48015 130.614 7.95373 130.447C7.42732 130.28 7.13598 129.718 7.30302 129.191C7.47006 128.665 8.03222 128.374 8.55864 128.541C9.08505 128.708 9.37639 129.27 9.20935 129.796Z" fill="#FFE5B9"/>
<path d="M252.647 4.03465C252.397 4.82428 251.767 5.32899 251.241 5.16195C250.714 4.99491 250.491 4.21937 250.741 3.42975C250.992 2.64012 251.622 2.13541 252.148 2.30245C252.674 2.46949 252.898 3.24502 252.647 4.03465Z" fill="#FFE5B9"/>
<path d="M186.056 68.7709C185.653 69.8075 185.265 70.5517 184.71 71.6787C184.426 72.2547 183.586 71.9882 183.691 71.3553C183.891 70.1587 184.038 69.3909 184.355 68.289C184.435 68.0077 184.303 67.7164 184.045 67.6155C183.066 67.2233 181.999 66.7314 180.946 66.196C180.395 65.916 180.673 65.041 181.283 65.1338C182.431 65.3114 183.55 65.5659 184.609 65.8682C184.879 65.9443 185.169 65.7969 185.274 65.5236C185.663 64.4874 186.061 63.5502 186.431 62.7475C186.702 62.1533 187.566 62.4176 187.456 63.068C187.28 64.0855 187.08 65.1813 186.877 66.0945C186.818 66.368 186.956 66.6419 187.207 66.7359C188.221 67.1199 189.143 67.5179 189.926 67.8909C190.494 68.1575 190.218 69.0569 189.592 68.9587C188.612 68.8011 187.557 68.6196 186.678 68.4319C186.418 68.3684 186.155 68.5151 186.056 68.7709Z" fill="#FFE5B9"/>
<path d="M232.003 49.9052C240.009 56.945 252.207 56.1612 259.247 48.1546C266.287 40.148 265.503 27.9505 257.496 20.9107C249.49 13.8709 237.292 14.6547 230.252 22.6613C223.213 30.6679 223.996 42.8654 232.003 49.9052Z" fill="url(#paint1_radial)"/>
<path d="M256.764 51.0603L255.675 51.2771C258.645 61.1549 259.119 66.8793 256.897 67.8379C253.476 69.313 246.398 56.9289 238.471 38.5618C230.537 20.1943 225.905 5.84582 229.326 4.37067C231.568 3.40028 235.428 7.27969 240.65 16.3907L241.696 16.0069C235.486 4.91996 229.692 -1.95661 226.958 -0.773844C223.006 0.930951 226.907 18.7577 235.667 39.0428C244.427 59.3278 254.729 74.3937 258.681 72.6889C261.369 71.5294 260.414 62.8744 256.764 51.0603Z" fill="url(#paint2_radial)"/>
<path d="M225.84 30.7153L225.955 31.8202C215.641 31.9058 210.032 33.1465 209.774 35.5528C209.377 39.2568 223.301 42.3539 243.191 44.4923C263.083 46.6368 278.16 46.8161 278.557 43.1121C278.821 40.6836 273.973 38.1432 263.725 35.8513L263.782 34.7382C276.21 37.3902 284.493 40.8901 284.172 43.8517C283.712 48.1311 265.53 49.6793 243.561 47.3127C221.592 44.9461 204.153 39.5631 204.612 35.2837C204.924 32.3724 213.475 30.7246 225.84 30.7153Z" fill="url(#paint3_radial)"/>
</g>
<defs>
<linearGradient id="paint0_linear" x1="58.1669" y1="280.953" x2="195.633" y2="-21.8574" gradientUnits="userSpaceOnUse">
<stop stop-color="#E86E58"/>
<stop offset="1" stop-color="#FFD590" stop-opacity="0"/>
</linearGradient>
<radialGradient id="paint1_radial" cx="0" cy="0" r="1" gradientUnits="userSpaceOnUse" gradientTransform="translate(263.521 31.8839) rotate(-178.885) scale(54.3444)">
<stop offset="0.00703537" stop-color="#EF9070"/>
<stop offset="1" stop-color="#FFE5B9"/>
</radialGradient>
<radialGradient id="paint2_radial" cx="0" cy="0" r="1" gradientUnits="userSpaceOnUse" gradientTransform="translate(246.046 18.7867) rotate(132.154) scale(28.6889 54.9034)">
<stop stop-color="#FFD590" stop-opacity="0"/>
<stop offset="1" stop-color="#FFD590"/>
</radialGradient>
<radialGradient id="paint3_radial" cx="0" cy="0" r="1" gradientUnits="userSpaceOnUse" gradientTransform="translate(259.84 31.4056) rotate(120.638) scale(28.6889 54.9034)">
<stop stop-color="#FFD590" stop-opacity="0"/>
<stop offset="1" stop-color="#FFD590"/>
</radialGradient>
<clipPath id="clip0">
<rect width="287" height="197" rx="2" fill="white"/>
</clipPath>
</defs>
</svg>
